M48
;Layer_Color=9474304
;FILE_FORMAT=2:4
INCH
;TYPE=PLATED
T1F00S00C0.0130
T2F00S00C0.0315
T3F00S00C0.0354
T4F00S00C0.0380
T5F00S00C0.0394
T6F00S00C0.0400
T7F00S00C0.0600
T8F00S00C0.0900
;TYPE=NON_PLATED
T9F00S00C0.0492
%
T01
X051300Y033300
X054600Y034000
X055900
X054900Y032200
X053400Y031300
X052500Y041200
X054300Y045400
X061400Y044800
X074600Y043900
Y041500
Y039300
Y037100
Y034700
Y046300
Y048700
X061800Y052500
X053100Y048200
T02
X053300Y033400
X052800Y046200
T03
X062900Y030500
X075300Y030800
X076300
X061900Y030500
X060900
X059900
X057500
Y031500
X054800Y038300
X076300Y038100
Y037100
Y035800
Y034800
Y033500
Y032500
Y039400
Y040400
Y041700
Y042700
Y044000
Y045000
Y046300
Y047300
X068400Y050850
Y051850
Y052850
Y053850
X067400
Y052850
Y051850
Y050850
X063900Y051850
Y052850
Y053850
T04
X056900Y041000
X057900
X058900
X059900
X060900
X061900
Y046000
X060900
X059900
X057900
X062900Y041000
X063900
X064900
X065900
X066900
X067900
X068900
X069900
Y042000
Y043000
Y044000
Y045000
Y046000
Y047000
X068900
X067900
X066900
X065900
X064900
X063900
X062900
X061900
X060900
X059900
X058900
X057900
X056900
T05
X059700Y033800
X060700
X061700
X063000Y037500
X064000
X065000
X066100Y034400
X067100
X068100
X070600Y031900
X071600
X072600
T06
X045600Y032500
X046600
X046599Y035200
X045599
X045600Y037900
X046600
Y040600
X045600
Y043300
X046600
Y046000
X045600
X047600
X048600
Y043300
X047600
Y040600
X048600
Y037900
X047600
X047599Y035200
X048599
X048600Y032500
X047600
X051600Y036400
X052600
X053600
X054600
X048600Y048700
X047600
X046600
X045600
T07
X047700Y051000
X049700
X051700
X053700
T08
X055365Y053146
X046035
T09
X047600Y033350
X047599Y036050
X047600Y038750
Y041450
Y044150
Y046850
X052600Y035550
X047600Y049550
M30
