G04 Layer_Physical_Order=2*
G04 Layer_Color=16711680*
%FSAX24Y24*%
%MOIN*%
G70*
G01*
G75*
%ADD11R,0.0551X0.0472*%
%ADD13R,0.0472X0.0551*%
G04:AMPARAMS|DCode=15|XSize=7.9mil|YSize=33.5mil|CornerRadius=0mil|HoleSize=0mil|Usage=FLASHONLY|Rotation=225.000|XOffset=0mil|YOffset=0mil|HoleType=Round|Shape=Round|*
%AMOVALD15*
21,1,0.0256,0.0079,0.0000,0.0000,315.0*
1,1,0.0079,-0.0090,0.0090*
1,1,0.0079,0.0090,-0.0090*
%
%ADD15OVALD15*%

G04:AMPARAMS|DCode=16|XSize=7.9mil|YSize=33.5mil|CornerRadius=0mil|HoleSize=0mil|Usage=FLASHONLY|Rotation=315.000|XOffset=0mil|YOffset=0mil|HoleType=Round|Shape=Round|*
%AMOVALD16*
21,1,0.0256,0.0079,0.0000,0.0000,45.0*
1,1,0.0079,-0.0090,-0.0090*
1,1,0.0079,0.0090,0.0090*
%
%ADD16OVALD16*%

%ADD17C,0.0080*%
%ADD18C,0.0100*%
%ADD20C,0.0200*%
%ADD22R,0.0591X0.0591*%
%ADD23C,0.0591*%
%ADD24C,0.0570*%
%ADD25R,0.0591X0.0591*%
%ADD26C,0.0400*%
%ADD27C,0.0700*%
%ADD28R,0.0700X0.0700*%
%ADD29C,0.0630*%
%ADD30R,0.0630X0.0630*%
%ADD31C,0.1200*%
%ADD32C,0.0900*%
%ADD33C,0.0300*%
%ADD34C,0.0472*%
%ADD35R,0.0433X0.0551*%
%ADD36P,0.1470X4X180.0*%
G36*
X076650Y047510D02*
X076600Y047493D01*
X076553Y047553D01*
X076479Y047610D01*
X076393Y047646D01*
X076300Y047658D01*
X076207Y047646D01*
X076121Y047610D01*
X076047Y047553D01*
X075990Y047479D01*
X075954Y047393D01*
X075942Y047300D01*
X075954Y047207D01*
X075990Y047121D01*
X076047Y047047D01*
X076121Y046990D01*
X076207Y046954D01*
X076300Y046942D01*
X076393Y046954D01*
X076479Y046990D01*
X076553Y047047D01*
X076600Y047107D01*
X076650Y047090D01*
Y046655D01*
X075945D01*
Y046175D01*
X075285Y045515D01*
X075249Y045462D01*
X075237Y045400D01*
Y043300D01*
Y043163D01*
X070206D01*
X070201Y043174D01*
X070146Y043246D01*
X070074Y043301D01*
X069990Y043336D01*
X069900Y043348D01*
X069810Y043336D01*
X069726Y043301D01*
X069654Y043246D01*
X069599Y043174D01*
X069564Y043090D01*
X069552Y043000D01*
X069564Y042910D01*
X069599Y042826D01*
X069654Y042754D01*
X069726Y042699D01*
X069810Y042664D01*
X069900Y042652D01*
X069990Y042664D01*
X070074Y042699D01*
X070146Y042754D01*
X070201Y042826D01*
X070206Y042837D01*
X075237D01*
Y042600D01*
Y040300D01*
Y038000D01*
Y035700D01*
Y033400D01*
X075249Y033338D01*
X075285Y033285D01*
X075945Y032625D01*
Y032145D01*
X076137D01*
Y031155D01*
X075945D01*
Y030445D01*
X076650D01*
Y030150D01*
X063110D01*
X063093Y030200D01*
X063153Y030247D01*
X063210Y030321D01*
X063246Y030407D01*
X063258Y030500D01*
X063246Y030593D01*
X063210Y030679D01*
X063153Y030753D01*
X063079Y030810D01*
X062993Y030846D01*
X062900Y030858D01*
X062807Y030846D01*
X062721Y030810D01*
X062647Y030753D01*
X062590Y030679D01*
X062554Y030593D01*
X062542Y030500D01*
X062554Y030407D01*
X062590Y030321D01*
X062647Y030247D01*
X062707Y030200D01*
X062690Y030150D01*
X062110D01*
X062093Y030200D01*
X062153Y030247D01*
X062210Y030321D01*
X062246Y030407D01*
X062258Y030500D01*
X062246Y030593D01*
X062210Y030679D01*
X062153Y030753D01*
X062079Y030810D01*
X061993Y030846D01*
X061900Y030858D01*
X061807Y030846D01*
X061721Y030810D01*
X061647Y030753D01*
X061590Y030679D01*
X061554Y030593D01*
X061542Y030500D01*
X061554Y030407D01*
X061590Y030321D01*
X061647Y030247D01*
X061707Y030200D01*
X061690Y030150D01*
X061110D01*
X061093Y030200D01*
X061153Y030247D01*
X061210Y030321D01*
X061246Y030407D01*
X061258Y030500D01*
X061246Y030593D01*
X061210Y030679D01*
X061153Y030753D01*
X061079Y030810D01*
X060993Y030846D01*
X060900Y030858D01*
X060807Y030846D01*
X060721Y030810D01*
X060647Y030753D01*
X060590Y030679D01*
X060554Y030593D01*
X060542Y030500D01*
X060554Y030407D01*
X060590Y030321D01*
X060647Y030247D01*
X060707Y030200D01*
X060690Y030150D01*
X060255D01*
Y030855D01*
X059545D01*
Y030150D01*
X057855D01*
Y030855D01*
X057145D01*
Y030150D01*
X045050D01*
Y054650D01*
X076650D01*
Y047510D01*
D02*
G37*
G36*
Y045210D02*
X076600Y045193D01*
X076553Y045253D01*
X076479Y045310D01*
X076393Y045346D01*
X076300Y045358D01*
X076207Y045346D01*
X076121Y045310D01*
X076047Y045253D01*
X075990Y045179D01*
X075954Y045093D01*
X075942Y045000D01*
X075954Y044907D01*
X075990Y044821D01*
X076047Y044747D01*
X076121Y044690D01*
X076207Y044654D01*
X076300Y044642D01*
X076393Y044654D01*
X076479Y044690D01*
X076553Y044747D01*
X076600Y044807D01*
X076650Y044790D01*
Y044355D01*
X075945D01*
Y044075D01*
X075609Y043740D01*
X075563Y043759D01*
Y045332D01*
X076175Y045945D01*
X076650D01*
Y045210D01*
D02*
G37*
G36*
Y042910D02*
X076600Y042893D01*
X076553Y042953D01*
X076479Y043010D01*
X076393Y043046D01*
X076300Y043058D01*
X076207Y043046D01*
X076121Y043010D01*
X076047Y042953D01*
X075990Y042879D01*
X075954Y042793D01*
X075942Y042700D01*
X075954Y042607D01*
X075990Y042521D01*
X076047Y042447D01*
X076121Y042390D01*
X076207Y042354D01*
X076300Y042342D01*
X076393Y042354D01*
X076479Y042390D01*
X076553Y042447D01*
X076600Y042507D01*
X076650Y042490D01*
Y042055D01*
X076175D01*
X075563Y042668D01*
Y043000D01*
Y043232D01*
X075975Y043645D01*
X076650D01*
Y042910D01*
D02*
G37*
G36*
X075945Y041825D02*
Y041345D01*
X076650D01*
Y040610D01*
X076600Y040593D01*
X076553Y040653D01*
X076479Y040710D01*
X076393Y040746D01*
X076300Y040758D01*
X076207Y040746D01*
X076121Y040710D01*
X076047Y040653D01*
X075990Y040579D01*
X075954Y040493D01*
X075942Y040400D01*
X075954Y040307D01*
X075990Y040221D01*
X076047Y040147D01*
X076121Y040090D01*
X076207Y040054D01*
X076300Y040042D01*
X076393Y040054D01*
X076479Y040090D01*
X076553Y040147D01*
X076600Y040207D01*
X076650Y040190D01*
Y039755D01*
X076175D01*
X075563Y040368D01*
Y042141D01*
X075609Y042160D01*
X075945Y041825D01*
D02*
G37*
G36*
Y039525D02*
Y039045D01*
X076650D01*
Y038310D01*
X076600Y038293D01*
X076553Y038353D01*
X076479Y038410D01*
X076393Y038446D01*
X076300Y038458D01*
X076207Y038446D01*
X076121Y038410D01*
X076047Y038353D01*
X075990Y038279D01*
X075954Y038193D01*
X075942Y038100D01*
X075954Y038007D01*
X075990Y037921D01*
X076047Y037847D01*
X076121Y037790D01*
X076207Y037754D01*
X076300Y037742D01*
X076393Y037754D01*
X076479Y037790D01*
X076553Y037847D01*
X076600Y037907D01*
X076650Y037890D01*
Y037455D01*
X076175D01*
X075563Y038068D01*
Y039841D01*
X075609Y039860D01*
X075945Y039525D01*
D02*
G37*
G36*
Y037225D02*
Y036745D01*
X076650D01*
Y036010D01*
X076600Y035993D01*
X076553Y036053D01*
X076479Y036110D01*
X076393Y036146D01*
X076300Y036158D01*
X076207Y036146D01*
X076121Y036110D01*
X076047Y036053D01*
X075990Y035979D01*
X075954Y035893D01*
X075942Y035800D01*
X075954Y035707D01*
X075990Y035621D01*
X076047Y035547D01*
X076121Y035490D01*
X076207Y035454D01*
X076300Y035442D01*
X076393Y035454D01*
X076479Y035490D01*
X076553Y035547D01*
X076600Y035607D01*
X076650Y035590D01*
Y035155D01*
X076175D01*
X075563Y035768D01*
Y037541D01*
X075609Y037560D01*
X075945Y037225D01*
D02*
G37*
G36*
Y034925D02*
Y034445D01*
X076650D01*
Y033710D01*
X076600Y033693D01*
X076553Y033753D01*
X076479Y033810D01*
X076393Y033846D01*
X076300Y033858D01*
X076207Y033846D01*
X076121Y033810D01*
X076047Y033753D01*
X075990Y033679D01*
X075954Y033593D01*
X075942Y033500D01*
X075954Y033407D01*
X075990Y033321D01*
X076047Y033247D01*
X076121Y033190D01*
X076207Y033154D01*
X076300Y033142D01*
X076393Y033154D01*
X076479Y033190D01*
X076553Y033247D01*
X076600Y033307D01*
X076650Y033290D01*
Y032855D01*
X076175D01*
X075563Y033468D01*
Y035241D01*
X075609Y035260D01*
X075945Y034925D01*
D02*
G37*
%LPC*%
G36*
X068450Y054242D02*
Y053900D01*
X068792D01*
X068785Y053953D01*
X068745Y054049D01*
X068682Y054132D01*
X068599Y054195D01*
X068503Y054235D01*
X068450Y054242D01*
D02*
G37*
G36*
X068350D02*
X068297Y054235D01*
X068201Y054195D01*
X068118Y054132D01*
X068055Y054049D01*
X068015Y053953D01*
X068008Y053900D01*
X068350D01*
Y054242D01*
D02*
G37*
G36*
X063900Y054208D02*
X063807Y054196D01*
X063721Y054160D01*
X063647Y054103D01*
X063590Y054029D01*
X063554Y053943D01*
X063542Y053850D01*
X063554Y053757D01*
X063590Y053671D01*
X063647Y053597D01*
X063721Y053540D01*
X063807Y053504D01*
X063900Y053492D01*
X063993Y053504D01*
X064079Y053540D01*
X064153Y053597D01*
X064210Y053671D01*
X064246Y053757D01*
X064258Y053850D01*
X064246Y053943D01*
X064210Y054029D01*
X064153Y054103D01*
X064079Y054160D01*
X063993Y054196D01*
X063900Y054208D01*
D02*
G37*
G36*
X068792Y053800D02*
X068450D01*
Y053458D01*
X068503Y053465D01*
X068599Y053505D01*
X068682Y053568D01*
X068745Y053651D01*
X068785Y053747D01*
X068792Y053800D01*
D02*
G37*
G36*
X068350D02*
X068008D01*
X068015Y053747D01*
X068055Y053651D01*
X068118Y053568D01*
X068201Y053505D01*
X068297Y053465D01*
X068350Y053458D01*
Y053800D01*
D02*
G37*
G36*
X061850Y052745D02*
Y052550D01*
X062045D01*
X062035Y052598D01*
X061980Y052680D01*
X061898Y052736D01*
X061850Y052745D01*
D02*
G37*
G36*
X061750D02*
X061702Y052736D01*
X061620Y052680D01*
X061564Y052598D01*
X061555Y052550D01*
X061750D01*
Y052745D01*
D02*
G37*
G36*
X068400Y053208D02*
X068307Y053196D01*
X068221Y053160D01*
X068147Y053103D01*
X068090Y053029D01*
X068054Y052943D01*
X068042Y052850D01*
X068054Y052757D01*
X068090Y052671D01*
X068147Y052597D01*
X068221Y052540D01*
X068307Y052504D01*
X068400Y052492D01*
X068493Y052504D01*
X068579Y052540D01*
X068653Y052597D01*
X068710Y052671D01*
X068746Y052757D01*
X068758Y052850D01*
X068746Y052943D01*
X068710Y053029D01*
X068653Y053103D01*
X068579Y053160D01*
X068493Y053196D01*
X068400Y053208D01*
D02*
G37*
G36*
X067400D02*
X067307Y053196D01*
X067221Y053160D01*
X067147Y053103D01*
X067090Y053029D01*
X067054Y052943D01*
X067042Y052850D01*
X067054Y052757D01*
X067090Y052671D01*
X067147Y052597D01*
X067221Y052540D01*
X067307Y052504D01*
X067400Y052492D01*
X067493Y052504D01*
X067579Y052540D01*
X067653Y052597D01*
X067710Y052671D01*
X067746Y052757D01*
X067758Y052850D01*
X067746Y052943D01*
X067710Y053029D01*
X067653Y053103D01*
X067579Y053160D01*
X067493Y053196D01*
X067400Y053208D01*
D02*
G37*
G36*
X063900D02*
X063807Y053196D01*
X063721Y053160D01*
X063647Y053103D01*
X063590Y053029D01*
X063554Y052943D01*
X063542Y052850D01*
X063554Y052757D01*
X063590Y052671D01*
X063647Y052597D01*
X063721Y052540D01*
X063807Y052504D01*
X063900Y052492D01*
X063993Y052504D01*
X064079Y052540D01*
X064153Y052597D01*
X064210Y052671D01*
X064246Y052757D01*
X064258Y052850D01*
X064246Y052943D01*
X064210Y053029D01*
X064153Y053103D01*
X064079Y053160D01*
X063993Y053196D01*
X063900Y053208D01*
D02*
G37*
G36*
X055365Y053809D02*
X055236Y053796D01*
X055112Y053758D01*
X054997Y053697D01*
X054896Y053615D01*
X054814Y053514D01*
X054753Y053399D01*
X054715Y053275D01*
X054702Y053146D01*
X054715Y053016D01*
X054753Y052892D01*
X054814Y052777D01*
X054896Y052677D01*
X054997Y052594D01*
X055112Y052533D01*
X055236Y052495D01*
X055365Y052482D01*
X055495Y052495D01*
X055619Y052533D01*
X055734Y052594D01*
X055834Y052677D01*
X055917Y052777D01*
X055978Y052892D01*
X056016Y053016D01*
X056029Y053146D01*
X056016Y053275D01*
X055978Y053399D01*
X055917Y053514D01*
X055834Y053615D01*
X055734Y053697D01*
X055619Y053758D01*
X055495Y053796D01*
X055365Y053809D01*
D02*
G37*
G36*
X046035D02*
X045905Y053796D01*
X045781Y053758D01*
X045666Y053697D01*
X045566Y053615D01*
X045483Y053514D01*
X045422Y053399D01*
X045384Y053275D01*
X045371Y053146D01*
X045384Y053016D01*
X045422Y052892D01*
X045483Y052777D01*
X045566Y052677D01*
X045666Y052594D01*
X045781Y052533D01*
X045905Y052495D01*
X046035Y052482D01*
X046164Y052495D01*
X046288Y052533D01*
X046403Y052594D01*
X046504Y052677D01*
X046586Y052777D01*
X046647Y052892D01*
X046685Y053016D01*
X046698Y053146D01*
X046685Y053275D01*
X046647Y053399D01*
X046586Y053514D01*
X046504Y053615D01*
X046403Y053697D01*
X046288Y053758D01*
X046164Y053796D01*
X046035Y053809D01*
D02*
G37*
G36*
X062045Y052450D02*
X061850D01*
Y052255D01*
X061898Y052264D01*
X061980Y052320D01*
X062035Y052402D01*
X062045Y052450D01*
D02*
G37*
G36*
X061750D02*
X061555D01*
X061564Y052402D01*
X061620Y052320D01*
X061702Y052264D01*
X061750Y052255D01*
Y052450D01*
D02*
G37*
G36*
X064295Y052245D02*
X063950D01*
Y051900D01*
X064295D01*
Y052245D01*
D02*
G37*
G36*
X063850D02*
X063505D01*
Y051900D01*
X063850D01*
Y052245D01*
D02*
G37*
G36*
X068400Y052208D02*
X068307Y052196D01*
X068221Y052160D01*
X068147Y052103D01*
X068090Y052029D01*
X068054Y051943D01*
X068042Y051850D01*
X068054Y051757D01*
X068090Y051671D01*
X068147Y051597D01*
X068221Y051540D01*
X068307Y051504D01*
X068400Y051492D01*
X068493Y051504D01*
X068579Y051540D01*
X068653Y051597D01*
X068710Y051671D01*
X068746Y051757D01*
X068758Y051850D01*
X068746Y051943D01*
X068710Y052029D01*
X068653Y052103D01*
X068579Y052160D01*
X068493Y052196D01*
X068400Y052208D01*
D02*
G37*
G36*
X067400D02*
X067307Y052196D01*
X067221Y052160D01*
X067147Y052103D01*
X067090Y052029D01*
X067054Y051943D01*
X067042Y051850D01*
X067054Y051757D01*
X067090Y051671D01*
X067147Y051597D01*
X067221Y051540D01*
X067307Y051504D01*
X067400Y051492D01*
X067493Y051504D01*
X067579Y051540D01*
X067653Y051597D01*
X067710Y051671D01*
X067746Y051757D01*
X067758Y051850D01*
X067746Y051943D01*
X067710Y052029D01*
X067653Y052103D01*
X067579Y052160D01*
X067493Y052196D01*
X067400Y052208D01*
D02*
G37*
G36*
X064295Y051800D02*
X063950D01*
Y051455D01*
X064295D01*
Y051800D01*
D02*
G37*
G36*
X063850D02*
X063505D01*
Y051455D01*
X063850D01*
Y051800D01*
D02*
G37*
G36*
X049750Y051548D02*
Y051050D01*
X050248D01*
X050236Y051144D01*
X050180Y051277D01*
X050092Y051392D01*
X049977Y051480D01*
X049844Y051536D01*
X049750Y051548D01*
D02*
G37*
G36*
X051750D02*
Y051050D01*
X052248D01*
X052236Y051144D01*
X052180Y051277D01*
X052092Y051392D01*
X051977Y051480D01*
X051844Y051536D01*
X051750Y051548D01*
D02*
G37*
G36*
X049650D02*
X049556Y051536D01*
X049423Y051480D01*
X049308Y051392D01*
X049220Y051277D01*
X049164Y051144D01*
X049152Y051050D01*
X049650D01*
Y051548D01*
D02*
G37*
G36*
X051650D02*
X051556Y051536D01*
X051423Y051480D01*
X051308Y051392D01*
X051220Y051277D01*
X051164Y051144D01*
X051152Y051050D01*
X051650D01*
Y051548D01*
D02*
G37*
G36*
X067400Y051208D02*
X067307Y051196D01*
X067221Y051160D01*
X067147Y051103D01*
X067090Y051029D01*
X067054Y050943D01*
X067042Y050850D01*
X067054Y050757D01*
X067090Y050671D01*
X067147Y050597D01*
X067221Y050540D01*
X067307Y050504D01*
X067400Y050492D01*
X067493Y050504D01*
X067579Y050540D01*
X067653Y050597D01*
X067710Y050671D01*
X067746Y050757D01*
X067758Y050850D01*
X067746Y050943D01*
X067710Y051029D01*
X067653Y051103D01*
X067579Y051160D01*
X067493Y051196D01*
X067400Y051208D01*
D02*
G37*
G36*
X053700Y051514D02*
X053567Y051497D01*
X053443Y051445D01*
X053336Y051364D01*
X053255Y051257D01*
X053203Y051133D01*
X053186Y051000D01*
X053203Y050867D01*
X053255Y050743D01*
X053336Y050636D01*
X053443Y050555D01*
X053567Y050503D01*
X053700Y050486D01*
X053833Y050503D01*
X053957Y050555D01*
X054064Y050636D01*
X054145Y050743D01*
X054197Y050867D01*
X054214Y051000D01*
X054197Y051133D01*
X054145Y051257D01*
X054064Y051364D01*
X053957Y051445D01*
X053833Y051497D01*
X053700Y051514D01*
D02*
G37*
G36*
X047700D02*
X047567Y051497D01*
X047443Y051445D01*
X047336Y051364D01*
X047255Y051257D01*
X047203Y051133D01*
X047186Y051000D01*
X047203Y050867D01*
X047255Y050743D01*
X047336Y050636D01*
X047443Y050555D01*
X047567Y050503D01*
X047700Y050486D01*
X047833Y050503D01*
X047957Y050555D01*
X048064Y050636D01*
X048145Y050743D01*
X048197Y050867D01*
X048214Y051000D01*
X048197Y051133D01*
X048145Y051257D01*
X048064Y051364D01*
X047957Y051445D01*
X047833Y051497D01*
X047700Y051514D01*
D02*
G37*
G36*
X052248Y050950D02*
X051750D01*
Y050452D01*
X051844Y050464D01*
X051977Y050520D01*
X052092Y050608D01*
X052180Y050723D01*
X052236Y050856D01*
X052248Y050950D01*
D02*
G37*
G36*
X050248D02*
X049750D01*
Y050452D01*
X049844Y050464D01*
X049977Y050520D01*
X050092Y050608D01*
X050180Y050723D01*
X050236Y050856D01*
X050248Y050950D01*
D02*
G37*
G36*
X051650D02*
X051152D01*
X051164Y050856D01*
X051220Y050723D01*
X051308Y050608D01*
X051423Y050520D01*
X051556Y050464D01*
X051650Y050452D01*
Y050950D01*
D02*
G37*
G36*
X049650D02*
X049152D01*
X049164Y050856D01*
X049220Y050723D01*
X049308Y050608D01*
X049423Y050520D01*
X049556Y050464D01*
X049650Y050452D01*
Y050950D01*
D02*
G37*
G36*
X047600Y049859D02*
X047520Y049849D01*
X047446Y049818D01*
X047382Y049769D01*
X047333Y049705D01*
X047302Y049630D01*
X047291Y049550D01*
X047302Y049471D01*
X047333Y049396D01*
X047382Y049332D01*
X047446Y049283D01*
X047520Y049252D01*
X047600Y049242D01*
X047680Y049252D01*
X047754Y049283D01*
X047818Y049332D01*
X047867Y049396D01*
X047898Y049471D01*
X047909Y049550D01*
X047898Y049630D01*
X047867Y049705D01*
X047818Y049769D01*
X047754Y049818D01*
X047680Y049849D01*
X047600Y049859D01*
D02*
G37*
G36*
X046050Y049150D02*
X045650D01*
Y048750D01*
X046050D01*
Y049150D01*
D02*
G37*
G36*
X074650Y048945D02*
Y048750D01*
X074845D01*
X074836Y048798D01*
X074780Y048880D01*
X074698Y048935D01*
X074650Y048945D01*
D02*
G37*
G36*
X074550D02*
X074502Y048935D01*
X074420Y048880D01*
X074365Y048798D01*
X074355Y048750D01*
X074550D01*
Y048945D01*
D02*
G37*
G36*
X045550Y049150D02*
X045150D01*
Y048750D01*
X045550D01*
Y049150D01*
D02*
G37*
G36*
X074845Y048650D02*
X074650D01*
Y048455D01*
X074698Y048464D01*
X074780Y048520D01*
X074836Y048602D01*
X074845Y048650D01*
D02*
G37*
G36*
X074550D02*
X074355D01*
X074365Y048602D01*
X074420Y048520D01*
X074502Y048464D01*
X074550Y048455D01*
Y048650D01*
D02*
G37*
G36*
X046600Y049114D02*
X046493Y049099D01*
X046393Y049058D01*
X046308Y048992D01*
X046242Y048907D01*
X046201Y048807D01*
X046186Y048700D01*
X046201Y048593D01*
X046242Y048493D01*
X046308Y048408D01*
X046393Y048342D01*
X046493Y048301D01*
X046600Y048286D01*
X046707Y048301D01*
X046807Y048342D01*
X046892Y048408D01*
X046958Y048493D01*
X046999Y048593D01*
X047014Y048700D01*
X046999Y048807D01*
X046958Y048907D01*
X046892Y048992D01*
X046807Y049058D01*
X046707Y049099D01*
X046600Y049114D01*
D02*
G37*
G36*
X046050Y048650D02*
X045650D01*
Y048250D01*
X046050D01*
Y048650D01*
D02*
G37*
G36*
X045550D02*
X045150D01*
Y048250D01*
X045550D01*
Y048650D01*
D02*
G37*
G36*
X051655Y048576D02*
X051388D01*
Y048250D01*
X051655D01*
Y048576D01*
D02*
G37*
G36*
X048600Y049114D02*
X048493Y049099D01*
X048393Y049058D01*
X048308Y048992D01*
X048242Y048907D01*
X048201Y048807D01*
X048186Y048700D01*
X048201Y048593D01*
X048242Y048493D01*
X048308Y048408D01*
X048393Y048342D01*
X048493Y048301D01*
X048600Y048286D01*
X048707Y048301D01*
X048807Y048342D01*
X048892Y048408D01*
X048958Y048493D01*
X048999Y048593D01*
X049000Y048598D01*
X049558D01*
X050208Y047948D01*
X050189Y047902D01*
X048142D01*
X047765Y048279D01*
X047774Y048328D01*
X047807Y048342D01*
X047892Y048408D01*
X047958Y048493D01*
X047999Y048593D01*
X048014Y048700D01*
X047999Y048807D01*
X047958Y048907D01*
X047892Y048992D01*
X047807Y049058D01*
X047707Y049099D01*
X047600Y049114D01*
X047493Y049099D01*
X047393Y049058D01*
X047308Y048992D01*
X047242Y048907D01*
X047201Y048807D01*
X047186Y048700D01*
X047201Y048593D01*
X047242Y048493D01*
X047308Y048408D01*
X047393Y048342D01*
X047493Y048301D01*
X047498Y048300D01*
X047506Y048261D01*
X047528Y048228D01*
X048028Y047728D01*
X048061Y047706D01*
X048100Y047698D01*
X050258D01*
X050568Y047388D01*
X050571Y047386D01*
X050579Y047323D01*
X049357Y046102D01*
X049000D01*
X048999Y046107D01*
X048958Y046206D01*
X048892Y046292D01*
X048807Y046358D01*
X048707Y046399D01*
X048600Y046413D01*
X048493Y046399D01*
X048393Y046358D01*
X048308Y046292D01*
X048242Y046206D01*
X048201Y046107D01*
X048186Y046000D01*
X048201Y045893D01*
X048242Y045793D01*
X048308Y045707D01*
X048393Y045641D01*
X048493Y045600D01*
X048600Y045586D01*
X048707Y045600D01*
X048807Y045641D01*
X048892Y045707D01*
X048958Y045793D01*
X048999Y045893D01*
X049000Y045898D01*
X049286D01*
X049305Y045851D01*
X048856Y045402D01*
X048142D01*
X047888Y045656D01*
X047891Y045706D01*
X047892Y045707D01*
X047958Y045793D01*
X047999Y045893D01*
X048014Y046000D01*
X047999Y046107D01*
X047958Y046206D01*
X047892Y046292D01*
X047807Y046358D01*
X047707Y046399D01*
X047600Y046413D01*
X047493Y046399D01*
X047393Y046358D01*
X047308Y046292D01*
X047242Y046206D01*
X047201Y046107D01*
X047186Y046000D01*
X047201Y045893D01*
X047242Y045793D01*
X047308Y045707D01*
X047393Y045641D01*
X047493Y045600D01*
X047600Y045586D01*
X047662Y045594D01*
X048028Y045228D01*
X048061Y045206D01*
X048100Y045198D01*
X048898D01*
X048937Y045206D01*
X048970Y045228D01*
X050452Y046710D01*
X050498Y046691D01*
Y044742D01*
X049158Y043402D01*
X049000D01*
X048999Y043407D01*
X048958Y043506D01*
X048892Y043592D01*
X048807Y043658D01*
X048707Y043699D01*
X048600Y043713D01*
X048493Y043699D01*
X048393Y043658D01*
X048308Y043592D01*
X048242Y043506D01*
X048201Y043407D01*
X048186Y043300D01*
X048201Y043193D01*
X048242Y043093D01*
X048308Y043007D01*
X048380Y042952D01*
X048363Y042902D01*
X048142D01*
X047955Y043089D01*
X047958Y043093D01*
X047999Y043193D01*
X048014Y043300D01*
X047999Y043407D01*
X047958Y043506D01*
X047892Y043592D01*
X047807Y043658D01*
X047707Y043699D01*
X047600Y043713D01*
X047493Y043699D01*
X047393Y043658D01*
X047308Y043592D01*
X047242Y043506D01*
X047201Y043407D01*
X047186Y043300D01*
X047201Y043193D01*
X047242Y043093D01*
X047308Y043007D01*
X047393Y042941D01*
X047493Y042900D01*
X047600Y042886D01*
X047707Y042900D01*
X047807Y042941D01*
X047811Y042945D01*
X048028Y042728D01*
X048061Y042706D01*
X048100Y042698D01*
X048900D01*
X048939Y042706D01*
X048972Y042728D01*
X050812Y044568D01*
X050834Y044601D01*
X050842Y044640D01*
Y046647D01*
X050942Y046748D01*
X051440D01*
X051858Y046330D01*
X051861Y046328D01*
X051949Y046240D01*
X051950Y046227D01*
X051924Y046200D01*
X051950Y046173D01*
X051949Y046160D01*
X051861Y046072D01*
X051858Y046070D01*
X050928Y045140D01*
X050906Y045107D01*
X050898Y045068D01*
Y042442D01*
X049157Y040702D01*
X049000D01*
X048999Y040707D01*
X048958Y040806D01*
X048892Y040892D01*
X048807Y040958D01*
X048707Y040999D01*
X048600Y041013D01*
X048493Y040999D01*
X048393Y040958D01*
X048308Y040892D01*
X048242Y040806D01*
X048201Y040707D01*
X048186Y040600D01*
X048201Y040493D01*
X048242Y040393D01*
X048308Y040307D01*
X048393Y040241D01*
X048493Y040200D01*
X048484Y040152D01*
X048292D01*
X047985Y040459D01*
X047999Y040493D01*
X048014Y040600D01*
X047999Y040707D01*
X047958Y040806D01*
X047892Y040892D01*
X047807Y040958D01*
X047707Y040999D01*
X047600Y041013D01*
X047493Y040999D01*
X047393Y040958D01*
X047308Y040892D01*
X047242Y040806D01*
X047201Y040707D01*
X047186Y040600D01*
X047201Y040493D01*
X047242Y040393D01*
X047308Y040307D01*
X047393Y040241D01*
X047493Y040200D01*
X047600Y040186D01*
X047707Y040200D01*
X047807Y040241D01*
X047868Y040288D01*
X048178Y039978D01*
X048211Y039956D01*
X048250Y039948D01*
X048850D01*
X048889Y039956D01*
X048922Y039978D01*
X051248Y042304D01*
X051298Y042283D01*
Y040342D01*
X049358Y038402D01*
X049000D01*
X048961Y038394D01*
X048928Y038372D01*
X048811Y038255D01*
X048807Y038258D01*
X048707Y038299D01*
X048600Y038314D01*
X048493Y038299D01*
X048393Y038258D01*
X048308Y038192D01*
X048242Y038107D01*
X048201Y038007D01*
X048186Y037900D01*
X048201Y037793D01*
X048242Y037693D01*
X048308Y037608D01*
X048393Y037542D01*
X048493Y037501D01*
X048600Y037486D01*
X048707Y037501D01*
X048807Y037542D01*
X048892Y037608D01*
X048958Y037693D01*
X048999Y037793D01*
X049014Y037900D01*
X048999Y038007D01*
X048958Y038107D01*
X048955Y038111D01*
X049042Y038198D01*
X049289D01*
X049308Y038152D01*
X049278Y038122D01*
X049256Y038089D01*
X049248Y038050D01*
Y037692D01*
X048958Y037402D01*
X048242D01*
X047955Y037689D01*
X047958Y037693D01*
X047999Y037793D01*
X048014Y037900D01*
X047999Y038007D01*
X047958Y038107D01*
X047892Y038192D01*
X047807Y038258D01*
X047707Y038299D01*
X047600Y038314D01*
X047493Y038299D01*
X047393Y038258D01*
X047308Y038192D01*
X047242Y038107D01*
X047201Y038007D01*
X047186Y037900D01*
X047201Y037793D01*
X047242Y037693D01*
X047308Y037608D01*
X047393Y037542D01*
X047493Y037501D01*
X047600Y037486D01*
X047707Y037501D01*
X047807Y037542D01*
X047811Y037545D01*
X048128Y037228D01*
X048161Y037206D01*
X048200Y037198D01*
X049000D01*
X049039Y037206D01*
X049072Y037228D01*
X049422Y037578D01*
X049444Y037611D01*
X049452Y037650D01*
Y038008D01*
X051648Y040204D01*
X051698Y040183D01*
Y038242D01*
X048943Y035487D01*
X048893Y035490D01*
X048891Y035492D01*
X048806Y035558D01*
X048706Y035599D01*
X048599Y035614D01*
X048492Y035599D01*
X048392Y035558D01*
X048307Y035492D01*
X048241Y035407D01*
X048200Y035307D01*
X048185Y035200D01*
X048200Y035093D01*
X048241Y034993D01*
X048307Y034908D01*
X048392Y034842D01*
X048492Y034801D01*
X048599Y034786D01*
X048706Y034801D01*
X048806Y034842D01*
X048891Y034908D01*
X048957Y034993D01*
X048998Y035093D01*
X049013Y035200D01*
X049005Y035260D01*
X049202Y035458D01*
X049248Y035439D01*
Y035142D01*
X048708Y034602D01*
X048341D01*
X047954Y034989D01*
X047957Y034993D01*
X047998Y035093D01*
X048013Y035200D01*
X047998Y035307D01*
X047957Y035407D01*
X047891Y035492D01*
X047806Y035558D01*
X047706Y035599D01*
X047599Y035614D01*
X047492Y035599D01*
X047392Y035558D01*
X047307Y035492D01*
X047241Y035407D01*
X047200Y035307D01*
X047185Y035200D01*
X047200Y035093D01*
X047241Y034993D01*
X047307Y034908D01*
X047392Y034842D01*
X047492Y034801D01*
X047599Y034786D01*
X047706Y034801D01*
X047806Y034842D01*
X047810Y034845D01*
X048227Y034428D01*
X048260Y034406D01*
X048299Y034398D01*
X049499D01*
Y034164D01*
X050092D01*
Y034836D01*
X049499D01*
Y034602D01*
X049061D01*
X049042Y034648D01*
X049422Y035028D01*
X049444Y035061D01*
X049452Y035100D01*
Y035510D01*
X052056Y038113D01*
X052078Y038146D01*
X052085Y038185D01*
Y044896D01*
X052340Y045150D01*
X052347Y045149D01*
X052563Y045365D01*
X052598Y045330D01*
X052634Y045365D01*
X052734Y045265D01*
X052766Y045297D01*
X052800Y045314D01*
X052834Y045297D01*
X052866Y045265D01*
X052966Y045365D01*
X053002Y045330D01*
X053037Y045365D01*
X053221Y045181D01*
X053224Y045185D01*
X053234Y045240D01*
X053234Y045244D01*
X053242Y045257D01*
X053275Y045279D01*
X053297Y045312D01*
X053311Y045321D01*
X053315Y045320D01*
X053369Y045331D01*
X053373Y045333D01*
X053189Y045517D01*
X053260Y045588D01*
X053444Y045404D01*
X053446Y045408D01*
X053452Y045437D01*
X053481Y045442D01*
X053484Y045445D01*
X053301Y045629D01*
X053371Y045699D01*
X053555Y045516D01*
X053558Y045519D01*
X053563Y045548D01*
X053592Y045554D01*
X053596Y045556D01*
X053412Y045740D01*
X053483Y045811D01*
X053667Y045627D01*
X053669Y045631D01*
X053675Y045659D01*
X053703Y045665D01*
X053707Y045668D01*
X053523Y045851D01*
X053594Y045922D01*
X053810Y045706D01*
X053817Y045707D01*
X054092Y045432D01*
X054086Y045400D01*
X054102Y045318D01*
X054149Y045249D01*
X054218Y045202D01*
X054300Y045186D01*
X054382Y045202D01*
X054451Y045249D01*
X054498Y045318D01*
X054514Y045400D01*
X054498Y045482D01*
X054451Y045551D01*
X054382Y045598D01*
X054300Y045614D01*
X054218Y045598D01*
X054216Y045596D01*
X053742Y046070D01*
X053739Y046072D01*
X053651Y046160D01*
X053650Y046173D01*
X053676Y046200D01*
X053650Y046227D01*
X053651Y046240D01*
X053832Y046421D01*
X053854Y046454D01*
X053862Y046492D01*
X053854Y046531D01*
X053832Y046564D01*
X053827Y046567D01*
X053819Y046629D01*
X054088Y046898D01*
X055158D01*
X059798Y042258D01*
Y041331D01*
X059726Y041301D01*
X059654Y041246D01*
X059599Y041174D01*
X059564Y041090D01*
X059552Y041000D01*
X059564Y040910D01*
X059599Y040826D01*
X059654Y040754D01*
X059726Y040699D01*
X059810Y040664D01*
X059900Y040652D01*
X059990Y040664D01*
X060074Y040699D01*
X060141Y040750D01*
X060183Y040742D01*
X060191Y040739D01*
Y040622D01*
X058285Y038715D01*
X058249Y038662D01*
X058237Y038600D01*
Y035768D01*
X055650Y033181D01*
X054810Y034021D01*
X054798Y034082D01*
X054751Y034151D01*
X054682Y034198D01*
X054600Y034214D01*
X054518Y034198D01*
X054449Y034151D01*
X054402Y034082D01*
X054386Y034000D01*
X054402Y033918D01*
X054449Y033849D01*
X054518Y033802D01*
X054579Y033790D01*
X055419Y032950D01*
X054879Y032410D01*
X054818Y032398D01*
X054749Y032351D01*
X054702Y032282D01*
X054690Y032221D01*
X053932Y031463D01*
X053534D01*
X053482Y031498D01*
X053400Y031514D01*
X053330Y031500D01*
X051510Y033321D01*
X051498Y033382D01*
X051451Y033451D01*
X051382Y033498D01*
X051321Y033510D01*
X050716Y034114D01*
X050737Y034164D01*
X050801D01*
Y034836D01*
X050208D01*
Y034164D01*
X050341D01*
Y034096D01*
X050354Y034033D01*
X050389Y033980D01*
X051090Y033279D01*
X051102Y033218D01*
X051149Y033149D01*
X051218Y033102D01*
X051279Y033090D01*
X053185Y031185D01*
X053238Y031149D01*
X053252Y031146D01*
X053318Y031102D01*
X053400Y031086D01*
X053482Y031102D01*
X053534Y031137D01*
X054000D01*
X054062Y031149D01*
X054115Y031185D01*
X054921Y031990D01*
X054982Y032002D01*
X055051Y032049D01*
X055098Y032118D01*
X055110Y032179D01*
X055765Y032835D01*
X058515Y035585D01*
X058551Y035638D01*
X058563Y035700D01*
Y038532D01*
X060470Y040439D01*
X060505Y040492D01*
X060517Y040554D01*
Y040898D01*
X060564Y040910D01*
X060599Y040826D01*
X060654Y040754D01*
X060726Y040699D01*
X060810Y040664D01*
X060900Y040652D01*
X060990Y040664D01*
X061074Y040699D01*
X061146Y040754D01*
X061201Y040826D01*
X061236Y040910D01*
X061239Y040931D01*
X061290Y040933D01*
X061296Y040898D01*
X061321Y040862D01*
X062412Y039771D01*
X062412Y039771D01*
X062448Y039746D01*
X062491Y039738D01*
X062491Y039738D01*
X066749D01*
X072299Y034188D01*
Y033714D01*
X072484D01*
Y033504D01*
X072484Y033504D01*
X072492Y033461D01*
X072516Y033425D01*
X074982Y030960D01*
X074954Y030893D01*
X074942Y030800D01*
X074954Y030707D01*
X074990Y030621D01*
X075047Y030547D01*
X075121Y030490D01*
X075207Y030454D01*
X075300Y030442D01*
X075393Y030454D01*
X075479Y030490D01*
X075553Y030547D01*
X075610Y030621D01*
X075646Y030707D01*
X075658Y030800D01*
X075646Y030893D01*
X075610Y030979D01*
X075553Y031053D01*
X075479Y031110D01*
X075393Y031146D01*
X075300Y031158D01*
X075207Y031146D01*
X075140Y031118D01*
X072708Y033551D01*
Y033714D01*
X072892D01*
Y034386D01*
X072419D01*
X066875Y039929D01*
X066839Y039954D01*
X066796Y039962D01*
X066796Y039962D01*
X062538D01*
X061894Y040606D01*
X061917Y040654D01*
X061990Y040664D01*
X062074Y040699D01*
X062146Y040754D01*
X062201Y040826D01*
X062236Y040910D01*
X062248Y041000D01*
X062236Y041090D01*
X062201Y041174D01*
X062146Y041246D01*
X062074Y041301D01*
X061990Y041336D01*
X061900Y041348D01*
X061810Y041336D01*
X061726Y041301D01*
X061654Y041246D01*
X061599Y041174D01*
X061564Y041090D01*
X061562Y041077D01*
X061512Y041080D01*
Y044622D01*
X061551Y044649D01*
X061598Y044718D01*
X061614Y044800D01*
X061598Y044882D01*
X061551Y044951D01*
X061482Y044998D01*
X061400Y045014D01*
X061318Y044998D01*
X061249Y044951D01*
X061202Y044882D01*
X061186Y044800D01*
X061202Y044718D01*
X061249Y044649D01*
X061288Y044622D01*
Y041080D01*
X061238Y041077D01*
X061236Y041090D01*
X061201Y041174D01*
X061146Y041246D01*
X061074Y041301D01*
X060990Y041336D01*
X060900Y041348D01*
X060810Y041336D01*
X060726Y041301D01*
X060654Y041246D01*
X060599Y041174D01*
X060564Y041090D01*
X060517Y041102D01*
Y044691D01*
X060505Y044754D01*
X060470Y044807D01*
X060040Y045236D01*
X060059Y045283D01*
X063564D01*
Y045149D01*
X064236D01*
Y045283D01*
X064564D01*
Y045149D01*
X065236D01*
Y045742D01*
X064564D01*
Y045609D01*
X064236D01*
Y045742D01*
X063564D01*
Y045609D01*
X061955D01*
X061952Y045659D01*
X061990Y045664D01*
X062074Y045699D01*
X062146Y045754D01*
X062201Y045826D01*
X062236Y045910D01*
X062248Y046000D01*
X062236Y046090D01*
X062201Y046174D01*
X062146Y046246D01*
X062074Y046301D01*
X061990Y046336D01*
X061900Y046348D01*
X061810Y046336D01*
X061726Y046301D01*
X061654Y046246D01*
X061599Y046174D01*
X061564Y046090D01*
X061552Y046000D01*
X061564Y045910D01*
X061599Y045826D01*
X061654Y045754D01*
X061726Y045699D01*
X061810Y045664D01*
X061848Y045659D01*
X061845Y045609D01*
X060955D01*
X060952Y045659D01*
X060990Y045664D01*
X061074Y045699D01*
X061146Y045754D01*
X061201Y045826D01*
X061236Y045910D01*
X061248Y046000D01*
X061236Y046090D01*
X061201Y046174D01*
X061146Y046246D01*
X061074Y046301D01*
X060990Y046336D01*
X060900Y046348D01*
X060810Y046336D01*
X060726Y046301D01*
X060654Y046246D01*
X060599Y046174D01*
X060564Y046090D01*
X060552Y046000D01*
X060564Y045910D01*
X060599Y045826D01*
X060654Y045754D01*
X060726Y045699D01*
X060810Y045664D01*
X060848Y045659D01*
X060845Y045609D01*
X059955D01*
X059952Y045659D01*
X059990Y045664D01*
X060074Y045699D01*
X060146Y045754D01*
X060201Y045826D01*
X060236Y045910D01*
X060248Y046000D01*
X060236Y046090D01*
X060201Y046174D01*
X060146Y046246D01*
X060074Y046301D01*
X059990Y046336D01*
X059900Y046348D01*
X059810Y046336D01*
X059726Y046301D01*
X059654Y046246D01*
X059599Y046174D01*
X059564Y046090D01*
X059552Y046000D01*
X059564Y045910D01*
X059599Y045826D01*
X059654Y045754D01*
X059726Y045699D01*
X059810Y045664D01*
X059848Y045659D01*
X059845Y045609D01*
X059622D01*
X059063Y046168D01*
Y046694D01*
X059074Y046699D01*
X059146Y046754D01*
X059201Y046826D01*
X059236Y046910D01*
X059248Y047000D01*
X059236Y047090D01*
X059201Y047174D01*
X059146Y047246D01*
X059074Y047301D01*
X059012Y047327D01*
Y047600D01*
X059012Y047600D01*
X059004Y047643D01*
X058979Y047679D01*
X058979Y047679D01*
X058811Y047848D01*
X058831Y047898D01*
X058958D01*
X059328Y047528D01*
X059361Y047506D01*
X059400Y047498D01*
X059700D01*
X059739Y047506D01*
X059772Y047528D01*
X060142Y047898D01*
X060358D01*
X060728Y047528D01*
X060761Y047506D01*
X060800Y047498D01*
X061100D01*
X061139Y047506D01*
X061172Y047528D01*
X061542Y047898D01*
X061758D01*
X062128Y047528D01*
X062161Y047506D01*
X062200Y047498D01*
X062500D01*
X062539Y047506D01*
X062572Y047528D01*
X062942Y047898D01*
X063158D01*
X063711Y047345D01*
X063702Y047283D01*
X063654Y047246D01*
X063599Y047174D01*
X063564Y047090D01*
X063552Y047000D01*
X063564Y046910D01*
X063599Y046826D01*
X063654Y046754D01*
X063726Y046699D01*
X063788Y046673D01*
Y046451D01*
X063564D01*
Y045858D01*
X064236D01*
Y046451D01*
X064012D01*
Y046673D01*
X064074Y046699D01*
X064146Y046754D01*
X064201Y046826D01*
X064236Y046910D01*
X064248Y047000D01*
X064236Y047090D01*
X064201Y047174D01*
X064146Y047246D01*
X064074Y047301D01*
X063995Y047334D01*
X063994Y047339D01*
X063972Y047372D01*
X063272Y048072D01*
X063239Y048094D01*
X063200Y048102D01*
X062900D01*
X062861Y048094D01*
X062828Y048072D01*
X062458Y047702D01*
X062242D01*
X061872Y048072D01*
X061839Y048094D01*
X061800Y048102D01*
X061500D01*
X061461Y048094D01*
X061428Y048072D01*
X061058Y047702D01*
X060842D01*
X060472Y048072D01*
X060439Y048094D01*
X060400Y048102D01*
X060100D01*
X060061Y048094D01*
X060028Y048072D01*
X059658Y047702D01*
X059442D01*
X059072Y048072D01*
X059039Y048094D01*
X059000Y048102D01*
X054243D01*
X054224Y048148D01*
X054274Y048198D01*
X063558D01*
X064594Y047162D01*
X064564Y047090D01*
X064552Y047000D01*
X064564Y046910D01*
X064599Y046826D01*
X064654Y046754D01*
X064726Y046699D01*
X064788Y046673D01*
Y046451D01*
X064564D01*
Y045858D01*
X065236D01*
Y046451D01*
X065012D01*
Y046673D01*
X065074Y046699D01*
X065146Y046754D01*
X065201Y046826D01*
X065236Y046910D01*
X065248Y047000D01*
X065236Y047090D01*
X065201Y047174D01*
X065146Y047246D01*
X065074Y047301D01*
X064990Y047336D01*
X064900Y047348D01*
X064810Y047336D01*
X064738Y047306D01*
X063672Y048372D01*
X063639Y048394D01*
X063600Y048402D01*
X054232D01*
X054193Y048394D01*
X054160Y048372D01*
X052930Y047142D01*
X052928Y047139D01*
X052840Y047051D01*
X052827Y047050D01*
X052800Y047076D01*
X052773Y047050D01*
X052760Y047051D01*
X052672Y047139D01*
X052670Y047142D01*
X052397Y047415D01*
Y047864D01*
X052572D01*
Y048037D01*
X052966D01*
X053018Y048002D01*
X053100Y047986D01*
X053182Y048002D01*
X053251Y048049D01*
X053298Y048118D01*
X053314Y048200D01*
X053298Y048282D01*
X053251Y048351D01*
X053182Y048398D01*
X053100Y048414D01*
X053018Y048398D01*
X052966Y048363D01*
X052572D01*
Y048536D01*
X052021D01*
Y048576D01*
X051755D01*
Y048200D01*
Y047824D01*
X052021D01*
Y047864D01*
X052193D01*
Y047462D01*
X052147Y047442D01*
X051918Y047672D01*
X051884Y047694D01*
X051845Y047702D01*
X050742D01*
X049672Y048772D01*
X049639Y048794D01*
X049600Y048802D01*
X049000D01*
X048999Y048807D01*
X048958Y048907D01*
X048892Y048992D01*
X048807Y049058D01*
X048707Y049099D01*
X048600Y049114D01*
D02*
G37*
G36*
X051655Y048150D02*
X051388D01*
Y047824D01*
X051655D01*
Y048150D01*
D02*
G37*
G36*
X068400Y051208D02*
X068307Y051196D01*
X068221Y051160D01*
X068147Y051103D01*
X068090Y051029D01*
X068054Y050943D01*
X068042Y050850D01*
X068054Y050757D01*
X068090Y050671D01*
X068147Y050597D01*
X068221Y050540D01*
X068288Y050512D01*
Y047080D01*
X068238Y047077D01*
X068236Y047090D01*
X068201Y047174D01*
X068146Y047246D01*
X068074Y047301D01*
X067990Y047336D01*
X067900Y047348D01*
X067810Y047336D01*
X067726Y047301D01*
X067654Y047246D01*
X067599Y047174D01*
X067564Y047090D01*
X067552Y047000D01*
X067564Y046910D01*
X067599Y046826D01*
X067654Y046754D01*
X067726Y046699D01*
X067810Y046664D01*
X067900Y046652D01*
X067990Y046664D01*
X068074Y046699D01*
X068146Y046754D01*
X068201Y046826D01*
X068236Y046910D01*
X068238Y046923D01*
X068288Y046920D01*
Y042546D01*
X067821Y042079D01*
X067796Y042043D01*
X067788Y042000D01*
X067788Y042000D01*
Y041327D01*
X067726Y041301D01*
X067654Y041246D01*
X067599Y041174D01*
X067564Y041090D01*
X067552Y041000D01*
X067564Y040910D01*
X067599Y040826D01*
X067654Y040754D01*
X067726Y040699D01*
X067810Y040664D01*
X067900Y040652D01*
X067990Y040664D01*
X068074Y040699D01*
X068146Y040754D01*
X068201Y040826D01*
X068236Y040910D01*
X068248Y041000D01*
X068236Y041090D01*
X068201Y041174D01*
X068146Y041246D01*
X068074Y041301D01*
X068012Y041327D01*
Y041954D01*
X068479Y042421D01*
X068479Y042421D01*
X068504Y042457D01*
X068512Y042500D01*
X068512Y042500D01*
Y046920D01*
X068562Y046923D01*
X068564Y046910D01*
X068599Y046826D01*
X068654Y046754D01*
X068726Y046699D01*
X068810Y046664D01*
X068900Y046652D01*
X068990Y046664D01*
X069074Y046699D01*
X069146Y046754D01*
X069201Y046826D01*
X069236Y046910D01*
X069248Y047000D01*
X069236Y047090D01*
X069201Y047174D01*
X069146Y047246D01*
X069074Y047301D01*
X068990Y047336D01*
X068900Y047348D01*
X068810Y047336D01*
X068726Y047301D01*
X068654Y047246D01*
X068599Y047174D01*
X068564Y047090D01*
X068562Y047077D01*
X068512Y047080D01*
Y050512D01*
X068579Y050540D01*
X068653Y050597D01*
X068710Y050671D01*
X068746Y050757D01*
X068758Y050850D01*
X068746Y050943D01*
X068710Y051029D01*
X068653Y051103D01*
X068579Y051160D01*
X068493Y051196D01*
X068400Y051208D01*
D02*
G37*
G36*
X067755Y054205D02*
X067045D01*
Y053653D01*
X066321Y052929D01*
X066296Y052893D01*
X066288Y052850D01*
X066288Y052850D01*
Y047080D01*
X066238Y047077D01*
X066236Y047090D01*
X066201Y047174D01*
X066146Y047246D01*
X066074Y047301D01*
X065990Y047336D01*
X065900Y047348D01*
X065810Y047336D01*
X065726Y047301D01*
X065654Y047246D01*
X065599Y047174D01*
X065564Y047090D01*
X065552Y047000D01*
X065564Y046910D01*
X065599Y046826D01*
X065654Y046754D01*
X065726Y046699D01*
X065810Y046664D01*
X065900Y046652D01*
X065990Y046664D01*
X066074Y046699D01*
X066146Y046754D01*
X066201Y046826D01*
X066236Y046910D01*
X066238Y046923D01*
X066288Y046920D01*
Y041500D01*
X066288Y041500D01*
X066296Y041457D01*
X066321Y041421D01*
X066589Y041152D01*
X066564Y041090D01*
X066552Y041000D01*
X066564Y040910D01*
X066599Y040826D01*
X066654Y040754D01*
X066726Y040699D01*
X066810Y040664D01*
X066900Y040652D01*
X066990Y040664D01*
X067074Y040699D01*
X067146Y040754D01*
X067201Y040826D01*
X067236Y040910D01*
X067248Y041000D01*
X067236Y041090D01*
X067201Y041174D01*
X067146Y041246D01*
X067074Y041301D01*
X066990Y041336D01*
X066900Y041348D01*
X066810Y041336D01*
X066748Y041311D01*
X066512Y041546D01*
Y046920D01*
X066562Y046923D01*
X066564Y046910D01*
X066599Y046826D01*
X066654Y046754D01*
X066726Y046699D01*
X066810Y046664D01*
X066900Y046652D01*
X066990Y046664D01*
X067074Y046699D01*
X067146Y046754D01*
X067201Y046826D01*
X067236Y046910D01*
X067248Y047000D01*
X067236Y047090D01*
X067201Y047174D01*
X067146Y047246D01*
X067074Y047301D01*
X066990Y047336D01*
X066900Y047348D01*
X066810Y047336D01*
X066726Y047301D01*
X066654Y047246D01*
X066599Y047174D01*
X066564Y047090D01*
X066562Y047077D01*
X066512Y047080D01*
Y052804D01*
X067203Y053495D01*
X067755D01*
Y054205D01*
D02*
G37*
G36*
X069900Y047348D02*
X069810Y047336D01*
X069726Y047301D01*
X069654Y047246D01*
X069599Y047174D01*
X069564Y047090D01*
X069552Y047000D01*
X069564Y046910D01*
X069599Y046826D01*
X069654Y046754D01*
X069726Y046699D01*
X069810Y046664D01*
X069900Y046652D01*
X069990Y046664D01*
X070074Y046699D01*
X070146Y046754D01*
X070201Y046826D01*
X070236Y046910D01*
X070248Y047000D01*
X070236Y047090D01*
X070201Y047174D01*
X070146Y047246D01*
X070074Y047301D01*
X069990Y047336D01*
X069900Y047348D01*
D02*
G37*
G36*
X062900D02*
X062810Y047336D01*
X062726Y047301D01*
X062654Y047246D01*
X062599Y047174D01*
X062564Y047090D01*
X062552Y047000D01*
X062564Y046910D01*
X062599Y046826D01*
X062654Y046754D01*
X062726Y046699D01*
X062810Y046664D01*
X062900Y046652D01*
X062990Y046664D01*
X063074Y046699D01*
X063146Y046754D01*
X063201Y046826D01*
X063236Y046910D01*
X063248Y047000D01*
X063236Y047090D01*
X063201Y047174D01*
X063146Y047246D01*
X063074Y047301D01*
X062990Y047336D01*
X062900Y047348D01*
D02*
G37*
G36*
X061900D02*
X061810Y047336D01*
X061726Y047301D01*
X061654Y047246D01*
X061599Y047174D01*
X061564Y047090D01*
X061552Y047000D01*
X061564Y046910D01*
X061599Y046826D01*
X061654Y046754D01*
X061726Y046699D01*
X061810Y046664D01*
X061900Y046652D01*
X061990Y046664D01*
X062074Y046699D01*
X062146Y046754D01*
X062201Y046826D01*
X062236Y046910D01*
X062248Y047000D01*
X062236Y047090D01*
X062201Y047174D01*
X062146Y047246D01*
X062074Y047301D01*
X061990Y047336D01*
X061900Y047348D01*
D02*
G37*
G36*
X060900D02*
X060810Y047336D01*
X060726Y047301D01*
X060654Y047246D01*
X060599Y047174D01*
X060564Y047090D01*
X060552Y047000D01*
X060564Y046910D01*
X060599Y046826D01*
X060654Y046754D01*
X060726Y046699D01*
X060810Y046664D01*
X060900Y046652D01*
X060990Y046664D01*
X061074Y046699D01*
X061146Y046754D01*
X061201Y046826D01*
X061236Y046910D01*
X061248Y047000D01*
X061236Y047090D01*
X061201Y047174D01*
X061146Y047246D01*
X061074Y047301D01*
X060990Y047336D01*
X060900Y047348D01*
D02*
G37*
G36*
X059900D02*
X059810Y047336D01*
X059726Y047301D01*
X059654Y047246D01*
X059599Y047174D01*
X059564Y047090D01*
X059552Y047000D01*
X059564Y046910D01*
X059599Y046826D01*
X059654Y046754D01*
X059726Y046699D01*
X059810Y046664D01*
X059900Y046652D01*
X059990Y046664D01*
X060074Y046699D01*
X060146Y046754D01*
X060201Y046826D01*
X060236Y046910D01*
X060248Y047000D01*
X060236Y047090D01*
X060201Y047174D01*
X060146Y047246D01*
X060074Y047301D01*
X059990Y047336D01*
X059900Y047348D01*
D02*
G37*
G36*
X047600Y047159D02*
X047520Y047148D01*
X047446Y047117D01*
X047382Y047068D01*
X047333Y047004D01*
X047302Y046930D01*
X047291Y046850D01*
X047302Y046770D01*
X047333Y046696D01*
X047382Y046632D01*
X047446Y046583D01*
X047520Y046552D01*
X047600Y046541D01*
X047680Y046552D01*
X047754Y046583D01*
X047818Y046632D01*
X047867Y046696D01*
X047898Y046770D01*
X047909Y046850D01*
X047898Y046930D01*
X047867Y047004D01*
X047818Y047068D01*
X047754Y047117D01*
X047680Y047148D01*
X047600Y047159D01*
D02*
G37*
G36*
X074650Y046545D02*
Y046350D01*
X074845D01*
X074836Y046398D01*
X074780Y046480D01*
X074698Y046536D01*
X074650Y046545D01*
D02*
G37*
G36*
X074550D02*
X074502Y046536D01*
X074420Y046480D01*
X074365Y046398D01*
X074355Y046350D01*
X074550D01*
Y046545D01*
D02*
G37*
G36*
X074845Y046250D02*
X074650D01*
Y046055D01*
X074698Y046065D01*
X074780Y046120D01*
X074836Y046202D01*
X074845Y046250D01*
D02*
G37*
G36*
X074550D02*
X074355D01*
X074365Y046202D01*
X074420Y046120D01*
X074502Y046065D01*
X074550Y046055D01*
Y046250D01*
D02*
G37*
G36*
X046050Y046450D02*
X045650D01*
Y046050D01*
X046050D01*
Y046450D01*
D02*
G37*
G36*
X045550D02*
X045150D01*
Y046050D01*
X045550D01*
Y046450D01*
D02*
G37*
G36*
X069900Y046348D02*
X069810Y046336D01*
X069726Y046301D01*
X069654Y046246D01*
X069599Y046174D01*
X069564Y046090D01*
X069552Y046000D01*
X069564Y045910D01*
X069599Y045826D01*
X069654Y045754D01*
X069726Y045699D01*
X069810Y045664D01*
X069900Y045652D01*
X069990Y045664D01*
X070074Y045699D01*
X070146Y045754D01*
X070201Y045826D01*
X070236Y045910D01*
X070248Y046000D01*
X070236Y046090D01*
X070201Y046174D01*
X070146Y046246D01*
X070074Y046301D01*
X069990Y046336D01*
X069900Y046348D01*
D02*
G37*
G36*
X046600Y046413D02*
X046493Y046399D01*
X046393Y046358D01*
X046308Y046292D01*
X046242Y046206D01*
X046201Y046107D01*
X046186Y046000D01*
X046201Y045893D01*
X046242Y045793D01*
X046308Y045707D01*
X046393Y045641D01*
X046493Y045600D01*
X046600Y045586D01*
X046707Y045600D01*
X046807Y045641D01*
X046892Y045707D01*
X046958Y045793D01*
X046999Y045893D01*
X047014Y046000D01*
X046999Y046107D01*
X046958Y046206D01*
X046892Y046292D01*
X046807Y046358D01*
X046707Y046399D01*
X046600Y046413D01*
D02*
G37*
G36*
X046050Y045950D02*
X045650D01*
Y045550D01*
X046050D01*
Y045950D01*
D02*
G37*
G36*
X045550D02*
X045150D01*
Y045550D01*
X045550D01*
Y045950D01*
D02*
G37*
G36*
X053002Y045259D02*
X052937Y045194D01*
X052992Y045139D01*
X053038Y045108D01*
X053092Y045097D01*
X053147Y045108D01*
X053150Y045111D01*
X053002Y045259D01*
D02*
G37*
G36*
X052598D02*
X052450Y045111D01*
X052453Y045108D01*
X052508Y045097D01*
X052562Y045108D01*
X052608Y045139D01*
X052663Y045194D01*
X052598Y045259D01*
D02*
G37*
G36*
X069900Y045348D02*
X069810Y045336D01*
X069726Y045301D01*
X069654Y045246D01*
X069599Y045174D01*
X069564Y045090D01*
X069552Y045000D01*
X069564Y044910D01*
X069599Y044826D01*
X069654Y044754D01*
X069726Y044699D01*
X069810Y044664D01*
X069900Y044652D01*
X069990Y044664D01*
X070074Y044699D01*
X070146Y044754D01*
X070201Y044826D01*
X070236Y044910D01*
X070248Y045000D01*
X070236Y045090D01*
X070201Y045174D01*
X070146Y045246D01*
X070074Y045301D01*
X069990Y045336D01*
X069900Y045348D01*
D02*
G37*
G36*
X069950Y044382D02*
Y044050D01*
X070282D01*
X070275Y044101D01*
X070236Y044194D01*
X070175Y044275D01*
X070094Y044336D01*
X070001Y044375D01*
X069950Y044382D01*
D02*
G37*
G36*
X069850D02*
X069799Y044375D01*
X069706Y044336D01*
X069625Y044275D01*
X069564Y044194D01*
X069525Y044101D01*
X069518Y044050D01*
X069850D01*
Y044382D01*
D02*
G37*
G36*
X074650Y044145D02*
Y043950D01*
X074845D01*
X074836Y043998D01*
X074780Y044080D01*
X074698Y044135D01*
X074650Y044145D01*
D02*
G37*
G36*
X074550D02*
X074502Y044135D01*
X074420Y044080D01*
X074365Y043998D01*
X074355Y043950D01*
X074550D01*
Y044145D01*
D02*
G37*
G36*
X047600Y044459D02*
X047520Y044448D01*
X047446Y044417D01*
X047382Y044368D01*
X047333Y044304D01*
X047302Y044230D01*
X047291Y044150D01*
X047302Y044070D01*
X047333Y043996D01*
X047382Y043932D01*
X047446Y043883D01*
X047520Y043852D01*
X047600Y043841D01*
X047680Y043852D01*
X047754Y043883D01*
X047818Y043932D01*
X047867Y043996D01*
X047898Y044070D01*
X047909Y044150D01*
X047898Y044230D01*
X047867Y044304D01*
X047818Y044368D01*
X047754Y044417D01*
X047680Y044448D01*
X047600Y044459D01*
D02*
G37*
G36*
X074845Y043850D02*
X074650D01*
Y043655D01*
X074698Y043664D01*
X074780Y043720D01*
X074836Y043802D01*
X074845Y043850D01*
D02*
G37*
G36*
X074550D02*
X074355D01*
X074365Y043802D01*
X074420Y043720D01*
X074502Y043664D01*
X074550Y043655D01*
Y043850D01*
D02*
G37*
G36*
X070282Y043950D02*
X069950D01*
Y043618D01*
X070001Y043625D01*
X070094Y043664D01*
X070175Y043725D01*
X070236Y043806D01*
X070275Y043899D01*
X070282Y043950D01*
D02*
G37*
G36*
X069850D02*
X069518D01*
X069525Y043899D01*
X069564Y043806D01*
X069625Y043725D01*
X069706Y043664D01*
X069799Y043625D01*
X069850Y043618D01*
Y043950D01*
D02*
G37*
G36*
X046050Y043750D02*
X045650D01*
Y043350D01*
X046050D01*
Y043750D01*
D02*
G37*
G36*
X045550D02*
X045150D01*
Y043350D01*
X045550D01*
Y043750D01*
D02*
G37*
G36*
X046600Y043713D02*
X046493Y043699D01*
X046393Y043658D01*
X046308Y043592D01*
X046242Y043506D01*
X046201Y043407D01*
X046186Y043300D01*
X046201Y043193D01*
X046242Y043093D01*
X046308Y043007D01*
X046393Y042941D01*
X046493Y042900D01*
X046600Y042886D01*
X046707Y042900D01*
X046807Y042941D01*
X046892Y043007D01*
X046958Y043093D01*
X046999Y043193D01*
X047014Y043300D01*
X046999Y043407D01*
X046958Y043506D01*
X046892Y043592D01*
X046807Y043658D01*
X046707Y043699D01*
X046600Y043713D01*
D02*
G37*
G36*
X046050Y043250D02*
X045650D01*
Y042850D01*
X046050D01*
Y043250D01*
D02*
G37*
G36*
X045550D02*
X045150D01*
Y042850D01*
X045550D01*
Y043250D01*
D02*
G37*
G36*
X069900Y042348D02*
X069810Y042336D01*
X069726Y042301D01*
X069654Y042246D01*
X069599Y042174D01*
X069564Y042090D01*
X069552Y042000D01*
X069564Y041910D01*
X069599Y041826D01*
X069654Y041754D01*
X069726Y041699D01*
X069810Y041664D01*
X069900Y041652D01*
X069990Y041664D01*
X070074Y041699D01*
X070146Y041754D01*
X070201Y041826D01*
X070236Y041910D01*
X070248Y042000D01*
X070236Y042090D01*
X070201Y042174D01*
X070146Y042246D01*
X070074Y042301D01*
X069990Y042336D01*
X069900Y042348D01*
D02*
G37*
G36*
X074650Y041745D02*
Y041550D01*
X074845D01*
X074836Y041598D01*
X074780Y041680D01*
X074698Y041736D01*
X074650Y041745D01*
D02*
G37*
G36*
X074550D02*
X074502Y041736D01*
X074420Y041680D01*
X074365Y041598D01*
X074355Y041550D01*
X074550D01*
Y041745D01*
D02*
G37*
G36*
X074845Y041450D02*
X074650D01*
Y041255D01*
X074698Y041265D01*
X074780Y041320D01*
X074836Y041402D01*
X074845Y041450D01*
D02*
G37*
G36*
X074550D02*
X074355D01*
X074365Y041402D01*
X074420Y041320D01*
X074502Y041265D01*
X074550Y041255D01*
Y041450D01*
D02*
G37*
G36*
X052550Y041445D02*
Y041250D01*
X052745D01*
X052736Y041298D01*
X052680Y041380D01*
X052598Y041435D01*
X052550Y041445D01*
D02*
G37*
G36*
X052450D02*
X052402Y041435D01*
X052320Y041380D01*
X052264Y041298D01*
X052255Y041250D01*
X052450D01*
Y041445D01*
D02*
G37*
G36*
X047600Y041759D02*
X047520Y041748D01*
X047446Y041717D01*
X047382Y041668D01*
X047333Y041604D01*
X047302Y041530D01*
X047291Y041450D01*
X047302Y041370D01*
X047333Y041296D01*
X047382Y041232D01*
X047446Y041183D01*
X047520Y041152D01*
X047600Y041141D01*
X047680Y041152D01*
X047754Y041183D01*
X047818Y041232D01*
X047867Y041296D01*
X047898Y041370D01*
X047909Y041450D01*
X047898Y041530D01*
X047867Y041604D01*
X047818Y041668D01*
X047754Y041717D01*
X047680Y041748D01*
X047600Y041759D01*
D02*
G37*
G36*
X056950Y041382D02*
Y041050D01*
X057282D01*
X057275Y041101D01*
X057236Y041194D01*
X057175Y041275D01*
X057094Y041336D01*
X057001Y041375D01*
X056950Y041382D01*
D02*
G37*
G36*
X056850D02*
X056799Y041375D01*
X056706Y041336D01*
X056625Y041275D01*
X056564Y041194D01*
X056525Y041101D01*
X056518Y041050D01*
X056850D01*
Y041382D01*
D02*
G37*
G36*
X052745Y041150D02*
X052550D01*
Y040955D01*
X052598Y040964D01*
X052680Y041020D01*
X052736Y041102D01*
X052745Y041150D01*
D02*
G37*
G36*
X052450D02*
X052255D01*
X052264Y041102D01*
X052320Y041020D01*
X052402Y040964D01*
X052450Y040955D01*
Y041150D01*
D02*
G37*
G36*
X069900Y041348D02*
X069810Y041336D01*
X069726Y041301D01*
X069654Y041246D01*
X069599Y041174D01*
X069564Y041090D01*
X069552Y041000D01*
X069564Y040910D01*
X069599Y040826D01*
X069654Y040754D01*
X069726Y040699D01*
X069810Y040664D01*
X069900Y040652D01*
X069990Y040664D01*
X070074Y040699D01*
X070146Y040754D01*
X070201Y040826D01*
X070236Y040910D01*
X070248Y041000D01*
X070236Y041090D01*
X070201Y041174D01*
X070146Y041246D01*
X070074Y041301D01*
X069990Y041336D01*
X069900Y041348D01*
D02*
G37*
G36*
X068900D02*
X068810Y041336D01*
X068726Y041301D01*
X068654Y041246D01*
X068599Y041174D01*
X068564Y041090D01*
X068552Y041000D01*
X068564Y040910D01*
X068599Y040826D01*
X068654Y040754D01*
X068726Y040699D01*
X068810Y040664D01*
X068900Y040652D01*
X068990Y040664D01*
X069074Y040699D01*
X069146Y040754D01*
X069201Y040826D01*
X069236Y040910D01*
X069248Y041000D01*
X069236Y041090D01*
X069201Y041174D01*
X069146Y041246D01*
X069074Y041301D01*
X068990Y041336D01*
X068900Y041348D01*
D02*
G37*
G36*
X065900D02*
X065810Y041336D01*
X065726Y041301D01*
X065654Y041246D01*
X065599Y041174D01*
X065564Y041090D01*
X065552Y041000D01*
X065564Y040910D01*
X065599Y040826D01*
X065654Y040754D01*
X065726Y040699D01*
X065810Y040664D01*
X065900Y040652D01*
X065990Y040664D01*
X066074Y040699D01*
X066146Y040754D01*
X066201Y040826D01*
X066236Y040910D01*
X066248Y041000D01*
X066236Y041090D01*
X066201Y041174D01*
X066146Y041246D01*
X066074Y041301D01*
X065990Y041336D01*
X065900Y041348D01*
D02*
G37*
G36*
X064900D02*
X064810Y041336D01*
X064726Y041301D01*
X064654Y041246D01*
X064599Y041174D01*
X064564Y041090D01*
X064552Y041000D01*
X064564Y040910D01*
X064599Y040826D01*
X064654Y040754D01*
X064726Y040699D01*
X064810Y040664D01*
X064900Y040652D01*
X064990Y040664D01*
X065074Y040699D01*
X065146Y040754D01*
X065201Y040826D01*
X065236Y040910D01*
X065248Y041000D01*
X065236Y041090D01*
X065201Y041174D01*
X065146Y041246D01*
X065074Y041301D01*
X064990Y041336D01*
X064900Y041348D01*
D02*
G37*
G36*
X063900D02*
X063810Y041336D01*
X063726Y041301D01*
X063654Y041246D01*
X063599Y041174D01*
X063564Y041090D01*
X063552Y041000D01*
X063564Y040910D01*
X063599Y040826D01*
X063654Y040754D01*
X063726Y040699D01*
X063810Y040664D01*
X063900Y040652D01*
X063990Y040664D01*
X064074Y040699D01*
X064146Y040754D01*
X064201Y040826D01*
X064236Y040910D01*
X064248Y041000D01*
X064236Y041090D01*
X064201Y041174D01*
X064146Y041246D01*
X064074Y041301D01*
X063990Y041336D01*
X063900Y041348D01*
D02*
G37*
G36*
X062900D02*
X062810Y041336D01*
X062726Y041301D01*
X062654Y041246D01*
X062599Y041174D01*
X062564Y041090D01*
X062552Y041000D01*
X062564Y040910D01*
X062599Y040826D01*
X062654Y040754D01*
X062726Y040699D01*
X062810Y040664D01*
X062900Y040652D01*
X062990Y040664D01*
X063074Y040699D01*
X063146Y040754D01*
X063201Y040826D01*
X063236Y040910D01*
X063248Y041000D01*
X063236Y041090D01*
X063201Y041174D01*
X063146Y041246D01*
X063074Y041301D01*
X062990Y041336D01*
X062900Y041348D01*
D02*
G37*
G36*
X058900D02*
X058810Y041336D01*
X058726Y041301D01*
X058654Y041246D01*
X058599Y041174D01*
X058564Y041090D01*
X058552Y041000D01*
X058564Y040910D01*
X058599Y040826D01*
X058654Y040754D01*
X058726Y040699D01*
X058810Y040664D01*
X058900Y040652D01*
X058990Y040664D01*
X059074Y040699D01*
X059146Y040754D01*
X059201Y040826D01*
X059236Y040910D01*
X059248Y041000D01*
X059236Y041090D01*
X059201Y041174D01*
X059146Y041246D01*
X059074Y041301D01*
X058990Y041336D01*
X058900Y041348D01*
D02*
G37*
G36*
X057900D02*
X057810Y041336D01*
X057726Y041301D01*
X057654Y041246D01*
X057599Y041174D01*
X057564Y041090D01*
X057552Y041000D01*
X057564Y040910D01*
X057599Y040826D01*
X057654Y040754D01*
X057726Y040699D01*
X057810Y040664D01*
X057900Y040652D01*
X057990Y040664D01*
X058074Y040699D01*
X058146Y040754D01*
X058201Y040826D01*
X058236Y040910D01*
X058248Y041000D01*
X058236Y041090D01*
X058201Y041174D01*
X058146Y041246D01*
X058074Y041301D01*
X057990Y041336D01*
X057900Y041348D01*
D02*
G37*
G36*
X046050Y041050D02*
X045650D01*
Y040650D01*
X046050D01*
Y041050D01*
D02*
G37*
G36*
X045550D02*
X045150D01*
Y040650D01*
X045550D01*
Y041050D01*
D02*
G37*
G36*
X057282Y040950D02*
X056950D01*
Y040618D01*
X057001Y040625D01*
X057094Y040664D01*
X057175Y040725D01*
X057236Y040806D01*
X057275Y040900D01*
X057282Y040950D01*
D02*
G37*
G36*
X056850D02*
X056518D01*
X056525Y040900D01*
X056564Y040806D01*
X056625Y040725D01*
X056706Y040664D01*
X056799Y040625D01*
X056850Y040618D01*
Y040950D01*
D02*
G37*
G36*
X046600Y041013D02*
X046493Y040999D01*
X046393Y040958D01*
X046308Y040892D01*
X046242Y040806D01*
X046201Y040707D01*
X046186Y040600D01*
X046201Y040493D01*
X046242Y040393D01*
X046308Y040307D01*
X046393Y040241D01*
X046493Y040200D01*
X046600Y040186D01*
X046707Y040200D01*
X046807Y040241D01*
X046892Y040307D01*
X046958Y040393D01*
X046999Y040493D01*
X047014Y040600D01*
X046999Y040707D01*
X046958Y040806D01*
X046892Y040892D01*
X046807Y040958D01*
X046707Y040999D01*
X046600Y041013D01*
D02*
G37*
G36*
X046050Y040550D02*
X045650D01*
Y040150D01*
X046050D01*
Y040550D01*
D02*
G37*
G36*
X045550D02*
X045150D01*
Y040150D01*
X045550D01*
Y040550D01*
D02*
G37*
G36*
X074650Y039545D02*
Y039350D01*
X074845D01*
X074836Y039398D01*
X074780Y039480D01*
X074698Y039536D01*
X074650Y039545D01*
D02*
G37*
G36*
X074550D02*
X074502Y039536D01*
X074420Y039480D01*
X074365Y039398D01*
X074355Y039350D01*
X074550D01*
Y039545D01*
D02*
G37*
G36*
X074845Y039250D02*
X074650D01*
Y039055D01*
X074698Y039065D01*
X074780Y039120D01*
X074836Y039202D01*
X074845Y039250D01*
D02*
G37*
G36*
X074550D02*
X074355D01*
X074365Y039202D01*
X074420Y039120D01*
X074502Y039065D01*
X074550Y039055D01*
Y039250D01*
D02*
G37*
G36*
X047600Y039059D02*
X047520Y039049D01*
X047446Y039018D01*
X047382Y038969D01*
X047333Y038905D01*
X047302Y038830D01*
X047291Y038750D01*
X047302Y038670D01*
X047333Y038596D01*
X047382Y038532D01*
X047446Y038483D01*
X047520Y038452D01*
X047600Y038442D01*
X047680Y038452D01*
X047754Y038483D01*
X047818Y038532D01*
X047867Y038596D01*
X047898Y038670D01*
X047909Y038750D01*
X047898Y038830D01*
X047867Y038905D01*
X047818Y038969D01*
X047754Y039018D01*
X047680Y039049D01*
X047600Y039059D01*
D02*
G37*
G36*
X046050Y038350D02*
X045650D01*
Y037950D01*
X046050D01*
Y038350D01*
D02*
G37*
G36*
X045550D02*
X045150D01*
Y037950D01*
X045550D01*
Y038350D01*
D02*
G37*
G36*
X055155Y038655D02*
X054445D01*
Y037945D01*
X055155D01*
Y038655D01*
D02*
G37*
G36*
X065050Y037912D02*
Y037550D01*
X065412D01*
X065404Y037608D01*
X065362Y037709D01*
X065296Y037796D01*
X065209Y037862D01*
X065108Y037904D01*
X065050Y037912D01*
D02*
G37*
G36*
X064950D02*
X064892Y037904D01*
X064791Y037862D01*
X064704Y037796D01*
X064638Y037709D01*
X064596Y037608D01*
X064588Y037550D01*
X064950D01*
Y037912D01*
D02*
G37*
G36*
X046600Y038314D02*
X046493Y038299D01*
X046393Y038258D01*
X046308Y038192D01*
X046242Y038107D01*
X046201Y038007D01*
X046186Y037900D01*
X046201Y037793D01*
X046242Y037693D01*
X046308Y037608D01*
X046393Y037542D01*
X046493Y037501D01*
X046600Y037486D01*
X046707Y037501D01*
X046807Y037542D01*
X046892Y037608D01*
X046958Y037693D01*
X046999Y037793D01*
X047014Y037900D01*
X046999Y038007D01*
X046958Y038107D01*
X046892Y038192D01*
X046807Y038258D01*
X046707Y038299D01*
X046600Y038314D01*
D02*
G37*
G36*
X046050Y037850D02*
X045650D01*
Y037450D01*
X046050D01*
Y037850D01*
D02*
G37*
G36*
X045550D02*
X045150D01*
Y037450D01*
X045550D01*
Y037850D01*
D02*
G37*
G36*
X074650Y037345D02*
Y037150D01*
X074845D01*
X074836Y037198D01*
X074780Y037280D01*
X074698Y037336D01*
X074650Y037345D01*
D02*
G37*
G36*
X074550D02*
X074502Y037336D01*
X074420Y037280D01*
X074365Y037198D01*
X074355Y037150D01*
X074550D01*
Y037345D01*
D02*
G37*
G36*
X063375Y037875D02*
X062625D01*
Y037125D01*
X063375D01*
Y037875D01*
D02*
G37*
G36*
X064000Y037878D02*
X063902Y037865D01*
X063811Y037828D01*
X063733Y037767D01*
X063672Y037689D01*
X063635Y037598D01*
X063622Y037500D01*
X063635Y037402D01*
X063672Y037311D01*
X063733Y037233D01*
X063811Y037172D01*
X063902Y037135D01*
X064000Y037122D01*
X064098Y037135D01*
X064189Y037172D01*
X064267Y037233D01*
X064328Y037311D01*
X064365Y037402D01*
X064378Y037500D01*
X064365Y037598D01*
X064328Y037689D01*
X064267Y037767D01*
X064189Y037828D01*
X064098Y037865D01*
X064000Y037878D01*
D02*
G37*
G36*
X065412Y037450D02*
X065050D01*
Y037088D01*
X065108Y037096D01*
X065209Y037138D01*
X065296Y037204D01*
X065362Y037291D01*
X065404Y037392D01*
X065412Y037450D01*
D02*
G37*
G36*
X064950D02*
X064588D01*
X064596Y037392D01*
X064638Y037291D01*
X064704Y037204D01*
X064791Y037138D01*
X064892Y037096D01*
X064950Y037088D01*
Y037450D01*
D02*
G37*
G36*
X074845Y037050D02*
X074650D01*
Y036855D01*
X074698Y036865D01*
X074780Y036920D01*
X074836Y037002D01*
X074845Y037050D01*
D02*
G37*
G36*
X074550D02*
X074355D01*
X074365Y037002D01*
X074420Y036920D01*
X074502Y036865D01*
X074550Y036855D01*
Y037050D01*
D02*
G37*
G36*
X055010Y036810D02*
X054190D01*
Y035990D01*
X055010D01*
Y036810D01*
D02*
G37*
G36*
X053600Y036814D02*
X053493Y036799D01*
X053393Y036758D01*
X053308Y036692D01*
X053242Y036607D01*
X053201Y036507D01*
X053186Y036400D01*
X053201Y036293D01*
X053242Y036193D01*
X053308Y036108D01*
X053393Y036042D01*
X053493Y036001D01*
X053600Y035986D01*
X053707Y036001D01*
X053807Y036042D01*
X053892Y036108D01*
X053958Y036193D01*
X053999Y036293D01*
X054014Y036400D01*
X053999Y036507D01*
X053958Y036607D01*
X053892Y036692D01*
X053807Y036758D01*
X053707Y036799D01*
X053600Y036814D01*
D02*
G37*
G36*
X052600D02*
X052493Y036799D01*
X052393Y036758D01*
X052308Y036692D01*
X052242Y036607D01*
X052201Y036507D01*
X052186Y036400D01*
X052201Y036293D01*
X052242Y036193D01*
X052308Y036108D01*
X052393Y036042D01*
X052493Y036001D01*
X052600Y035986D01*
X052707Y036001D01*
X052807Y036042D01*
X052892Y036108D01*
X052958Y036193D01*
X052999Y036293D01*
X053014Y036400D01*
X052999Y036507D01*
X052958Y036607D01*
X052892Y036692D01*
X052807Y036758D01*
X052707Y036799D01*
X052600Y036814D01*
D02*
G37*
G36*
X051600D02*
X051493Y036799D01*
X051393Y036758D01*
X051308Y036692D01*
X051242Y036607D01*
X051201Y036507D01*
X051186Y036400D01*
X051201Y036293D01*
X051242Y036193D01*
X051308Y036108D01*
X051393Y036042D01*
X051493Y036001D01*
X051600Y035986D01*
X051707Y036001D01*
X051807Y036042D01*
X051892Y036108D01*
X051958Y036193D01*
X051999Y036293D01*
X052014Y036400D01*
X051999Y036507D01*
X051958Y036607D01*
X051892Y036692D01*
X051807Y036758D01*
X051707Y036799D01*
X051600Y036814D01*
D02*
G37*
G36*
X047599Y036359D02*
X047519Y036349D01*
X047445Y036318D01*
X047381Y036269D01*
X047332Y036205D01*
X047301Y036130D01*
X047290Y036050D01*
X047301Y035970D01*
X047332Y035896D01*
X047381Y035832D01*
X047445Y035783D01*
X047519Y035752D01*
X047599Y035742D01*
X047679Y035752D01*
X047753Y035783D01*
X047817Y035832D01*
X047866Y035896D01*
X047897Y035970D01*
X047908Y036050D01*
X047897Y036130D01*
X047866Y036205D01*
X047817Y036269D01*
X047753Y036318D01*
X047679Y036349D01*
X047599Y036359D01*
D02*
G37*
G36*
X046049Y035650D02*
X045649D01*
Y035250D01*
X046049D01*
Y035650D01*
D02*
G37*
G36*
X045549D02*
X045149D01*
Y035250D01*
X045549D01*
Y035650D01*
D02*
G37*
G36*
X052600Y035858D02*
X052520Y035848D01*
X052446Y035817D01*
X052382Y035768D01*
X052333Y035704D01*
X052302Y035629D01*
X052291Y035550D01*
X052302Y035470D01*
X052333Y035395D01*
X052382Y035331D01*
X052446Y035282D01*
X052520Y035251D01*
X052600Y035241D01*
X052680Y035251D01*
X052754Y035282D01*
X052818Y035331D01*
X052867Y035395D01*
X052898Y035470D01*
X052909Y035550D01*
X052898Y035629D01*
X052867Y035704D01*
X052818Y035768D01*
X052754Y035817D01*
X052680Y035848D01*
X052600Y035858D01*
D02*
G37*
G36*
X046599Y035614D02*
X046492Y035599D01*
X046392Y035558D01*
X046307Y035492D01*
X046241Y035407D01*
X046200Y035307D01*
X046185Y035200D01*
X046200Y035093D01*
X046241Y034993D01*
X046307Y034908D01*
X046392Y034842D01*
X046492Y034801D01*
X046599Y034786D01*
X046706Y034801D01*
X046806Y034842D01*
X046891Y034908D01*
X046957Y034993D01*
X046998Y035093D01*
X047013Y035200D01*
X046998Y035307D01*
X046957Y035407D01*
X046891Y035492D01*
X046806Y035558D01*
X046706Y035599D01*
X046599Y035614D01*
D02*
G37*
G36*
X074650Y034945D02*
Y034750D01*
X074845D01*
X074836Y034798D01*
X074780Y034880D01*
X074698Y034936D01*
X074650Y034945D01*
D02*
G37*
G36*
X074550D02*
X074502Y034936D01*
X074420Y034880D01*
X074365Y034798D01*
X074355Y034750D01*
X074550D01*
Y034945D01*
D02*
G37*
G36*
X046049Y035150D02*
X045649D01*
Y034750D01*
X046049D01*
Y035150D01*
D02*
G37*
G36*
X045549D02*
X045149D01*
Y034750D01*
X045549D01*
Y035150D01*
D02*
G37*
G36*
X074845Y034650D02*
X074650D01*
Y034455D01*
X074698Y034464D01*
X074780Y034520D01*
X074836Y034602D01*
X074845Y034650D01*
D02*
G37*
G36*
X074550D02*
X074355D01*
X074365Y034602D01*
X074420Y034520D01*
X074502Y034464D01*
X074550Y034455D01*
Y034650D01*
D02*
G37*
G36*
X068150Y034812D02*
Y034450D01*
X068512D01*
X068504Y034508D01*
X068462Y034609D01*
X068396Y034696D01*
X068309Y034762D01*
X068208Y034804D01*
X068150Y034812D01*
D02*
G37*
G36*
X068050D02*
X067992Y034804D01*
X067891Y034762D01*
X067804Y034696D01*
X067738Y034609D01*
X067696Y034508D01*
X067688Y034450D01*
X068050D01*
Y034812D01*
D02*
G37*
G36*
X073641Y034426D02*
X073354D01*
Y034100D01*
X073641D01*
Y034426D01*
D02*
G37*
G36*
X073254D02*
X072968D01*
Y034100D01*
X073254D01*
Y034426D01*
D02*
G37*
G36*
X055950Y034245D02*
Y034050D01*
X056145D01*
X056136Y034098D01*
X056080Y034180D01*
X055998Y034235D01*
X055950Y034245D01*
D02*
G37*
G36*
X055850D02*
X055802Y034235D01*
X055720Y034180D01*
X055665Y034098D01*
X055655Y034050D01*
X055850D01*
Y034245D01*
D02*
G37*
G36*
X066475Y034775D02*
X065725D01*
Y034025D01*
X066475D01*
Y034775D01*
D02*
G37*
G36*
X067100Y034778D02*
X067002Y034765D01*
X066911Y034728D01*
X066833Y034667D01*
X066772Y034589D01*
X066735Y034498D01*
X066722Y034400D01*
X066735Y034302D01*
X066772Y034211D01*
X066833Y034133D01*
X066911Y034072D01*
X067002Y034035D01*
X067100Y034022D01*
X067198Y034035D01*
X067289Y034072D01*
X067367Y034133D01*
X067428Y034211D01*
X067465Y034302D01*
X067478Y034400D01*
X067465Y034498D01*
X067428Y034589D01*
X067367Y034667D01*
X067289Y034728D01*
X067198Y034765D01*
X067100Y034778D01*
D02*
G37*
G36*
X068512Y034350D02*
X068150D01*
Y033988D01*
X068208Y033996D01*
X068309Y034038D01*
X068396Y034104D01*
X068462Y034191D01*
X068504Y034292D01*
X068512Y034350D01*
D02*
G37*
G36*
X068050D02*
X067688D01*
X067696Y034292D01*
X067738Y034191D01*
X067804Y034104D01*
X067891Y034038D01*
X067992Y033996D01*
X068050Y033988D01*
Y034350D01*
D02*
G37*
G36*
X061750Y034212D02*
Y033850D01*
X062112D01*
X062104Y033908D01*
X062062Y034009D01*
X061996Y034096D01*
X061909Y034162D01*
X061808Y034204D01*
X061750Y034212D01*
D02*
G37*
G36*
X061650D02*
X061592Y034204D01*
X061491Y034162D01*
X061404Y034096D01*
X061338Y034009D01*
X061296Y033908D01*
X061288Y033850D01*
X061650D01*
Y034212D01*
D02*
G37*
G36*
X056145Y033950D02*
X055950D01*
Y033755D01*
X055998Y033765D01*
X056080Y033820D01*
X056136Y033902D01*
X056145Y033950D01*
D02*
G37*
G36*
X055850D02*
X055655D01*
X055665Y033902D01*
X055720Y033820D01*
X055802Y033765D01*
X055850Y033755D01*
Y033950D01*
D02*
G37*
G36*
X073641Y034000D02*
X073354D01*
Y033674D01*
X073641D01*
Y034000D01*
D02*
G37*
G36*
X073254D02*
X072968D01*
Y033674D01*
X073254D01*
Y034000D01*
D02*
G37*
G36*
X053350Y033733D02*
Y033450D01*
X053633D01*
X053628Y033488D01*
X053594Y033570D01*
X053540Y033640D01*
X053470Y033694D01*
X053388Y033728D01*
X053350Y033733D01*
D02*
G37*
G36*
X053250D02*
X053212Y033728D01*
X053130Y033694D01*
X053060Y033640D01*
X053006Y033570D01*
X052972Y033488D01*
X052967Y033450D01*
X053250D01*
Y033733D01*
D02*
G37*
G36*
X060075Y034175D02*
X059325D01*
Y033425D01*
X060075D01*
Y034175D01*
D02*
G37*
G36*
X060700Y034178D02*
X060602Y034165D01*
X060511Y034128D01*
X060433Y034067D01*
X060372Y033989D01*
X060335Y033898D01*
X060322Y033800D01*
X060335Y033702D01*
X060372Y033611D01*
X060433Y033533D01*
X060511Y033472D01*
X060602Y033435D01*
X060700Y033422D01*
X060798Y033435D01*
X060889Y033472D01*
X060967Y033533D01*
X061028Y033611D01*
X061065Y033702D01*
X061078Y033800D01*
X061065Y033898D01*
X061028Y033989D01*
X060967Y034067D01*
X060889Y034128D01*
X060798Y034165D01*
X060700Y034178D01*
D02*
G37*
G36*
X062112Y033750D02*
X061750D01*
Y033388D01*
X061808Y033396D01*
X061909Y033438D01*
X061996Y033504D01*
X062062Y033591D01*
X062104Y033692D01*
X062112Y033750D01*
D02*
G37*
G36*
X061650D02*
X061288D01*
X061296Y033692D01*
X061338Y033591D01*
X061404Y033504D01*
X061491Y033438D01*
X061592Y033396D01*
X061650Y033388D01*
Y033750D01*
D02*
G37*
G36*
X053633Y033350D02*
X053350D01*
Y033067D01*
X053388Y033072D01*
X053470Y033106D01*
X053540Y033160D01*
X053594Y033230D01*
X053628Y033312D01*
X053633Y033350D01*
D02*
G37*
G36*
X053250D02*
X052967D01*
X052972Y033312D01*
X053006Y033230D01*
X053060Y033160D01*
X053130Y033106D01*
X053212Y033072D01*
X053250Y033067D01*
Y033350D01*
D02*
G37*
G36*
X047600Y033659D02*
X047520Y033649D01*
X047446Y033618D01*
X047382Y033569D01*
X047333Y033505D01*
X047302Y033430D01*
X047291Y033350D01*
X047302Y033270D01*
X047333Y033196D01*
X047382Y033132D01*
X047446Y033083D01*
X047520Y033052D01*
X047600Y033042D01*
X047680Y033052D01*
X047754Y033083D01*
X047818Y033132D01*
X047867Y033196D01*
X047898Y033270D01*
X047909Y033350D01*
X047898Y033430D01*
X047867Y033505D01*
X047818Y033569D01*
X047754Y033618D01*
X047680Y033649D01*
X047600Y033659D01*
D02*
G37*
G36*
X046050Y032950D02*
X045650D01*
Y032550D01*
X046050D01*
Y032950D01*
D02*
G37*
G36*
X045550D02*
X045150D01*
Y032550D01*
X045550D01*
Y032950D01*
D02*
G37*
G36*
X048600Y032914D02*
X048493Y032899D01*
X048393Y032858D01*
X048308Y032792D01*
X048242Y032707D01*
X048201Y032607D01*
X048186Y032500D01*
X048201Y032393D01*
X048242Y032293D01*
X048308Y032208D01*
X048393Y032142D01*
X048493Y032101D01*
X048600Y032086D01*
X048707Y032101D01*
X048807Y032142D01*
X048892Y032208D01*
X048958Y032293D01*
X048999Y032393D01*
X049014Y032500D01*
X048999Y032607D01*
X048958Y032707D01*
X048892Y032792D01*
X048807Y032858D01*
X048707Y032899D01*
X048600Y032914D01*
D02*
G37*
G36*
X047600D02*
X047493Y032899D01*
X047393Y032858D01*
X047308Y032792D01*
X047242Y032707D01*
X047201Y032607D01*
X047186Y032500D01*
X047201Y032393D01*
X047242Y032293D01*
X047308Y032208D01*
X047393Y032142D01*
X047493Y032101D01*
X047600Y032086D01*
X047707Y032101D01*
X047807Y032142D01*
X047892Y032208D01*
X047958Y032293D01*
X047999Y032393D01*
X048014Y032500D01*
X047999Y032607D01*
X047958Y032707D01*
X047892Y032792D01*
X047807Y032858D01*
X047707Y032899D01*
X047600Y032914D01*
D02*
G37*
G36*
X046600D02*
X046493Y032899D01*
X046393Y032858D01*
X046308Y032792D01*
X046242Y032707D01*
X046201Y032607D01*
X046186Y032500D01*
X046201Y032393D01*
X046242Y032293D01*
X046308Y032208D01*
X046393Y032142D01*
X046493Y032101D01*
X046600Y032086D01*
X046707Y032101D01*
X046807Y032142D01*
X046892Y032208D01*
X046958Y032293D01*
X046999Y032393D01*
X047014Y032500D01*
X046999Y032607D01*
X046958Y032707D01*
X046892Y032792D01*
X046807Y032858D01*
X046707Y032899D01*
X046600Y032914D01*
D02*
G37*
G36*
X046050Y032450D02*
X045650D01*
Y032050D01*
X046050D01*
Y032450D01*
D02*
G37*
G36*
X045550D02*
X045150D01*
Y032050D01*
X045550D01*
Y032450D01*
D02*
G37*
G36*
X072650Y032312D02*
Y031950D01*
X073012D01*
X073004Y032008D01*
X072962Y032109D01*
X072896Y032196D01*
X072809Y032262D01*
X072708Y032304D01*
X072650Y032312D01*
D02*
G37*
G36*
X072550D02*
X072492Y032304D01*
X072391Y032262D01*
X072304Y032196D01*
X072238Y032109D01*
X072196Y032008D01*
X072188Y031950D01*
X072550D01*
Y032312D01*
D02*
G37*
G36*
X070975Y032275D02*
X070225D01*
Y031525D01*
X070975D01*
Y032275D01*
D02*
G37*
G36*
X071600Y032278D02*
X071502Y032265D01*
X071411Y032228D01*
X071333Y032167D01*
X071272Y032089D01*
X071235Y031998D01*
X071222Y031900D01*
X071235Y031802D01*
X071272Y031711D01*
X071333Y031633D01*
X071411Y031572D01*
X071502Y031535D01*
X071600Y031522D01*
X071698Y031535D01*
X071789Y031572D01*
X071867Y031633D01*
X071928Y031711D01*
X071965Y031802D01*
X071978Y031900D01*
X071965Y031998D01*
X071928Y032089D01*
X071867Y032167D01*
X071789Y032228D01*
X071698Y032265D01*
X071600Y032278D01*
D02*
G37*
G36*
X073012Y031850D02*
X072650D01*
Y031488D01*
X072708Y031496D01*
X072809Y031538D01*
X072896Y031604D01*
X072962Y031691D01*
X073004Y031792D01*
X073012Y031850D01*
D02*
G37*
G36*
X072550D02*
X072188D01*
X072196Y031792D01*
X072238Y031691D01*
X072304Y031604D01*
X072391Y031538D01*
X072492Y031496D01*
X072550Y031488D01*
Y031850D01*
D02*
G37*
G36*
X057500Y031858D02*
X057407Y031846D01*
X057321Y031810D01*
X057247Y031753D01*
X057190Y031679D01*
X057154Y031593D01*
X057142Y031500D01*
X057154Y031407D01*
X057190Y031321D01*
X057247Y031247D01*
X057321Y031190D01*
X057407Y031154D01*
X057500Y031142D01*
X057593Y031154D01*
X057679Y031190D01*
X057753Y031247D01*
X057810Y031321D01*
X057846Y031407D01*
X057858Y031500D01*
X057846Y031593D01*
X057810Y031679D01*
X057753Y031753D01*
X057679Y031810D01*
X057593Y031846D01*
X057500Y031858D01*
D02*
G37*
%LPD*%
G36*
X058788Y047554D02*
Y047327D01*
X058726Y047301D01*
X058654Y047246D01*
X058599Y047174D01*
X058564Y047090D01*
X058552Y047000D01*
X058564Y046910D01*
X058599Y046826D01*
X058654Y046754D01*
X058726Y046699D01*
X058737Y046694D01*
Y046100D01*
X058749Y046038D01*
X058785Y045985D01*
X059439Y045330D01*
X059492Y045295D01*
X059527Y045288D01*
X060191Y044624D01*
Y041261D01*
X060183Y041258D01*
X060141Y041250D01*
X060074Y041301D01*
X060002Y041331D01*
Y042300D01*
X059994Y042339D01*
X059972Y042372D01*
X055272Y047072D01*
X055239Y047094D01*
X055200Y047102D01*
X054045D01*
X054042Y047101D01*
X054017Y047147D01*
X054558Y047688D01*
X058654D01*
X058788Y047554D01*
D02*
G37*
%LPC*%
G36*
X057950Y047382D02*
Y047050D01*
X058282D01*
X058275Y047101D01*
X058236Y047194D01*
X058175Y047275D01*
X058094Y047336D01*
X058001Y047375D01*
X057950Y047382D01*
D02*
G37*
G36*
X057850D02*
X057799Y047375D01*
X057706Y047336D01*
X057625Y047275D01*
X057564Y047194D01*
X057525Y047101D01*
X057518Y047050D01*
X057850D01*
Y047382D01*
D02*
G37*
G36*
X056900Y047348D02*
X056810Y047336D01*
X056726Y047301D01*
X056654Y047246D01*
X056599Y047174D01*
X056564Y047090D01*
X056552Y047000D01*
X056564Y046910D01*
X056599Y046826D01*
X056654Y046754D01*
X056726Y046699D01*
X056810Y046664D01*
X056900Y046652D01*
X056990Y046664D01*
X057074Y046699D01*
X057146Y046754D01*
X057201Y046826D01*
X057236Y046910D01*
X057248Y047000D01*
X057236Y047090D01*
X057201Y047174D01*
X057146Y047246D01*
X057074Y047301D01*
X056990Y047336D01*
X056900Y047348D01*
D02*
G37*
G36*
X058282Y046950D02*
X057950D01*
Y046618D01*
X058001Y046625D01*
X058094Y046664D01*
X058175Y046725D01*
X058236Y046806D01*
X058275Y046899D01*
X058282Y046950D01*
D02*
G37*
G36*
X057850D02*
X057518D01*
X057525Y046899D01*
X057564Y046806D01*
X057625Y046725D01*
X057706Y046664D01*
X057799Y046625D01*
X057850Y046618D01*
Y046950D01*
D02*
G37*
G36*
X057900Y046348D02*
X057810Y046336D01*
X057726Y046301D01*
X057654Y046246D01*
X057599Y046174D01*
X057564Y046090D01*
X057552Y046000D01*
X057564Y045910D01*
X057599Y045826D01*
X057654Y045754D01*
X057726Y045699D01*
X057810Y045664D01*
X057900Y045652D01*
X057990Y045664D01*
X058074Y045699D01*
X058146Y045754D01*
X058201Y045826D01*
X058236Y045910D01*
X058248Y046000D01*
X058236Y046090D01*
X058201Y046174D01*
X058146Y046246D01*
X058074Y046301D01*
X057990Y046336D01*
X057900Y046348D01*
D02*
G37*
%LPD*%
D11*
X063900Y045446D02*
D03*
Y046154D02*
D03*
X064900Y045446D02*
D03*
Y046154D02*
D03*
D13*
X073304Y034050D02*
D03*
X072596D02*
D03*
X049796Y034500D02*
D03*
X050504D02*
D03*
D15*
X052598Y047070D02*
D03*
X052487Y046959D02*
D03*
X052375Y046847D02*
D03*
X052264Y046736D02*
D03*
X052153Y046625D02*
D03*
X052041Y046513D02*
D03*
X051930Y046402D02*
D03*
X053002Y045330D02*
D03*
X053113Y045441D02*
D03*
X053225Y045553D02*
D03*
X053336Y045664D02*
D03*
X053447Y045775D02*
D03*
X053559Y045887D02*
D03*
X053670Y045998D02*
D03*
D16*
Y046402D02*
D03*
X053559Y046513D02*
D03*
X053447Y046625D02*
D03*
X053336Y046736D02*
D03*
X053225Y046847D02*
D03*
X053113Y046959D02*
D03*
X053002Y047070D02*
D03*
X051930Y045998D02*
D03*
X052041Y045887D02*
D03*
X052153Y045775D02*
D03*
X052264Y045664D02*
D03*
X052375Y045553D02*
D03*
X052487Y045441D02*
D03*
X052598Y045330D02*
D03*
D17*
X053100Y048200D02*
X053100Y048200D01*
X052295Y047373D02*
Y048200D01*
Y047373D02*
X052598Y047070D01*
X053100Y048200D02*
Y048300D01*
X054268Y045400D02*
X054300D01*
X053670Y045998D02*
X054268Y045400D01*
X051600Y045000D02*
X052264Y045664D01*
X051600Y040300D02*
Y045000D01*
X051482Y046850D02*
X051930Y046402D01*
X050900Y046850D02*
X051482D01*
X048100Y042800D02*
X048900D01*
X051565Y046990D02*
X052041Y046513D01*
X050786Y046990D02*
X051565D01*
X048600Y043300D02*
X049200D01*
X051617Y047160D02*
X052153Y046625D01*
X050758Y047160D02*
X051617D01*
X048898Y045300D02*
X050758Y047160D01*
X048100Y045300D02*
X048898D01*
X051700Y047300D02*
X052264Y046736D01*
X050700Y047300D02*
X051700D01*
X049400Y046000D02*
X050700Y047300D01*
X051763Y047460D02*
X052375Y046847D01*
X050640Y047460D02*
X051763D01*
X050300Y047800D02*
X050640Y047460D01*
X048100Y047800D02*
X050300D01*
X047600Y048300D02*
X048100Y047800D01*
X051845Y047600D02*
X052487Y046959D01*
X050700Y047600D02*
X051845D01*
X049600Y048700D02*
X050700Y047600D01*
X048800Y035200D02*
X051800Y038200D01*
Y044977D01*
X052375Y045553D01*
X049350Y035552D02*
X051983Y038185D01*
Y044938D01*
X052487Y045441D01*
X053559Y046513D02*
X054045Y047000D01*
X055200D01*
X059900Y042300D01*
Y041000D02*
Y042300D01*
X053113Y046959D02*
X054155Y048000D01*
X059000D01*
X059400Y047600D01*
X053002Y047070D02*
X054232Y048300D01*
X063600D01*
X064900Y047000D01*
X059400Y047600D02*
X059700D01*
X060100Y048000D01*
X060400D01*
X060800Y047600D01*
X061100D01*
X061500Y048000D01*
X061800D01*
X062200Y047600D01*
X062500D01*
X062900Y048000D01*
X063200D01*
X063900Y047300D01*
Y047000D02*
Y047300D01*
X052800Y045977D02*
X053225Y045553D01*
X052800Y046200D02*
X053336Y045664D01*
X053023Y046200D02*
X053447Y045775D01*
X053245Y046200D02*
X053559Y045887D01*
X052800Y046200D02*
X053023D01*
X053245D01*
X052800Y045532D02*
Y045977D01*
Y046200D01*
X052598Y045330D02*
X052800Y045532D01*
X053002Y045330D01*
X047600Y048300D02*
Y048700D01*
X048250Y040050D02*
X048850D01*
X047600Y040700D02*
Y040800D01*
X049350Y038050D02*
X051600Y040300D01*
X048599Y035200D02*
X048800D01*
X049350Y035100D02*
Y035552D01*
X048750Y034500D02*
X049350Y035100D01*
X048299Y034500D02*
X048750D01*
X047599Y035200D02*
X048299Y034500D01*
X049350Y037650D02*
Y038050D01*
X049000Y037300D02*
X049350Y037650D01*
X048200Y037300D02*
X049000D01*
X047600Y037900D02*
X048200Y037300D01*
X049000Y038300D02*
X049400D01*
X048600Y037900D02*
X049000Y038300D01*
X047700Y040600D02*
X048250Y040050D01*
X047600Y040600D02*
X047700D01*
X048600D02*
X049200D01*
X047600Y045800D02*
X048100Y045300D01*
X047600Y045800D02*
Y046000D01*
X048600D02*
X049400D01*
X048600Y048700D02*
X049600D01*
X047600Y043300D02*
X048100Y042800D01*
X050600Y046804D02*
X050786Y046990D01*
X050740Y046690D02*
X050900Y046850D01*
X049200Y043300D02*
X050600Y044700D01*
Y046804D01*
X048900Y042800D02*
X050740Y044640D01*
Y046690D01*
X051000Y045068D02*
X051930Y045998D01*
X051200Y045045D02*
X052041Y045887D01*
X049200Y040600D02*
X051000Y042400D01*
Y045068D01*
X048850Y040050D02*
X051200Y042400D01*
Y045045D01*
X051400Y045023D02*
X052153Y045775D01*
X049400Y038300D02*
X051400Y040300D01*
Y045023D01*
X048750Y034500D02*
X049796D01*
X049796Y034500D01*
D18*
X064900Y046154D02*
X064900Y046154D01*
X064900Y046154D02*
Y047000D01*
X063900Y046154D02*
X063900Y046154D01*
X063900Y046154D02*
Y047000D01*
X067900Y042000D02*
X068400Y042500D01*
X067900Y041000D02*
Y042000D01*
X058700Y047800D02*
X058900Y047600D01*
Y047000D02*
Y047600D01*
X054511Y047800D02*
X058700D01*
X053392Y046680D02*
X054511Y047800D01*
X072596Y033504D02*
X075300Y030800D01*
X072596Y033504D02*
Y034050D01*
X066796Y039850D02*
X072596Y034050D01*
X062491Y039850D02*
X066796D01*
X061400Y040941D02*
X062491Y039850D01*
X061400Y040941D02*
Y044800D01*
X068400Y042500D02*
Y050850D01*
X066400Y052850D02*
X067400Y053850D01*
X066400Y041500D02*
Y052850D01*
Y041500D02*
X066900Y041000D01*
D20*
X052295Y048200D02*
X053100D01*
X058400Y038600D02*
X060354Y040554D01*
X058400Y035700D02*
Y038600D01*
X060354Y040554D02*
Y044691D01*
X059600Y045446D02*
X060354Y044691D01*
X058900Y046100D02*
Y047000D01*
Y046100D02*
X059554Y045446D01*
X063900D01*
X064900D01*
X075400Y038000D02*
X076300Y037100D01*
X075400Y035700D02*
X076300Y034800D01*
X075400Y035700D02*
Y038000D01*
Y033400D02*
X076300Y032500D01*
X075400Y033400D02*
Y035700D01*
Y045400D02*
X076300Y046300D01*
X076100Y044000D02*
X076300D01*
X075400Y043300D02*
X076100Y044000D01*
X075400Y043300D02*
Y045400D01*
Y040300D02*
X076300Y039400D01*
X075400Y038000D02*
Y040300D01*
X069900Y043000D02*
X075400D01*
Y043300D01*
Y042600D02*
X076300Y041700D01*
X075400Y040300D02*
Y042600D01*
Y043000D01*
X053400Y031300D02*
X054000D01*
X054900Y032200D01*
X054600Y034000D02*
X055650Y032950D01*
X054900Y032200D02*
X055650Y032950D01*
X058400Y035700D01*
X051300Y033300D02*
X053300Y031300D01*
X053400D01*
X076300Y030800D02*
Y032500D01*
X050504Y034096D02*
Y034500D01*
Y034096D02*
X051300Y033300D01*
D22*
X063900Y051850D02*
D03*
X076300Y046300D02*
D03*
Y044000D02*
D03*
Y041700D02*
D03*
Y039400D02*
D03*
Y037100D02*
D03*
Y034800D02*
D03*
Y032500D02*
D03*
X057500Y030500D02*
D03*
X067400Y053850D02*
D03*
D23*
X063900Y052850D02*
D03*
Y053850D02*
D03*
X076300Y047300D02*
D03*
Y045000D02*
D03*
Y042700D02*
D03*
Y040400D02*
D03*
Y038100D02*
D03*
Y035800D02*
D03*
Y033500D02*
D03*
X057500Y031500D02*
D03*
X068400Y053850D02*
D03*
X067400Y052850D02*
D03*
X068400D02*
D03*
X067400Y051850D02*
D03*
X068400D02*
D03*
X067400Y050850D02*
D03*
X068400D02*
D03*
X075300Y030800D02*
D03*
X062900Y030500D02*
D03*
X060900D02*
D03*
X061900D02*
D03*
D24*
X056900Y041000D02*
D03*
X057900D02*
D03*
X058900D02*
D03*
X059900D02*
D03*
X060900D02*
D03*
X061900D02*
D03*
X062900D02*
D03*
X063900D02*
D03*
X064900D02*
D03*
X065900D02*
D03*
X066900D02*
D03*
X067900D02*
D03*
X068900D02*
D03*
X069900D02*
D03*
Y042000D02*
D03*
Y043000D02*
D03*
Y044000D02*
D03*
Y045000D02*
D03*
Y046000D02*
D03*
Y047000D02*
D03*
X068900D02*
D03*
X067900D02*
D03*
X066900D02*
D03*
X065900D02*
D03*
X064900D02*
D03*
X063900D02*
D03*
X062900D02*
D03*
X061900D02*
D03*
X060900D02*
D03*
X059900D02*
D03*
X058900D02*
D03*
X057900D02*
D03*
X056900D02*
D03*
X057900Y046000D02*
D03*
X059900D02*
D03*
X060900D02*
D03*
X061900D02*
D03*
D25*
X054800Y038300D02*
D03*
X076300Y030800D02*
D03*
X059900Y030500D02*
D03*
D26*
X047600Y049550D02*
D03*
Y046850D02*
D03*
Y044150D02*
D03*
Y041450D02*
D03*
Y038750D02*
D03*
X047599Y036050D02*
D03*
X047600Y033350D02*
D03*
X052600Y035550D02*
D03*
D27*
X048600Y048700D02*
D03*
X047600D02*
D03*
X046600D02*
D03*
X048600Y046000D02*
D03*
X047600D02*
D03*
X046600D02*
D03*
X048600Y043300D02*
D03*
X047600D02*
D03*
X046600D02*
D03*
X048600Y040600D02*
D03*
X047600D02*
D03*
X046600D02*
D03*
X048600Y037900D02*
D03*
X047600D02*
D03*
X046600D02*
D03*
X048599Y035200D02*
D03*
X047599D02*
D03*
X046599D02*
D03*
X048600Y032500D02*
D03*
X047600D02*
D03*
X046600D02*
D03*
X051600Y036400D02*
D03*
X052600D02*
D03*
X053600D02*
D03*
D28*
X045600Y048700D02*
D03*
Y046000D02*
D03*
Y043300D02*
D03*
Y040600D02*
D03*
Y037900D02*
D03*
X045599Y035200D02*
D03*
X045600Y032500D02*
D03*
X054600Y036400D02*
D03*
D29*
X061700Y033800D02*
D03*
X060700D02*
D03*
X065000Y037500D02*
D03*
X064000D02*
D03*
X068100Y034400D02*
D03*
X067100D02*
D03*
X072600Y031900D02*
D03*
X071600D02*
D03*
D30*
X059700Y033800D02*
D03*
X063000Y037500D02*
D03*
X066100Y034400D02*
D03*
X070600Y031900D02*
D03*
D31*
X055365Y053146D02*
D03*
X046035D02*
D03*
D32*
X053700Y051000D02*
D03*
X051700D02*
D03*
X049700D02*
D03*
X047700D02*
D03*
D33*
X053100Y048200D02*
D03*
X054300Y045400D02*
D03*
X053400Y031300D02*
D03*
X074600Y034700D02*
D03*
Y037100D02*
D03*
Y039300D02*
D03*
Y041500D02*
D03*
Y043900D02*
D03*
Y046300D02*
D03*
Y048700D02*
D03*
X061800Y052500D02*
D03*
X052500Y041200D02*
D03*
X055900Y034000D02*
D03*
X054900Y032200D02*
D03*
X054600Y034000D02*
D03*
X051300Y033300D02*
D03*
X061400Y044800D02*
D03*
D34*
X052800Y046200D02*
D03*
X053300Y033400D02*
D03*
D35*
X051705Y048200D02*
D03*
X052295D02*
D03*
D36*
X052800Y046200D02*
D03*
M02*
