G04 Layer_Color=16711935*
%FSAX24Y24*%
%MOIN*%
G70*
G01*
G75*
%ADD41R,0.0631X0.0552*%
%ADD43R,0.0552X0.0631*%
G04:AMPARAMS|DCode=45|XSize=15.9mil|YSize=41.5mil|CornerRadius=0mil|HoleSize=0mil|Usage=FLASHONLY|Rotation=225.000|XOffset=0mil|YOffset=0mil|HoleType=Round|Shape=Round|*
%AMOVALD45*
21,1,0.0256,0.0159,0.0000,0.0000,315.0*
1,1,0.0159,-0.0090,0.0090*
1,1,0.0159,0.0090,-0.0090*
%
%ADD45OVALD45*%

G04:AMPARAMS|DCode=46|XSize=15.9mil|YSize=41.5mil|CornerRadius=0mil|HoleSize=0mil|Usage=FLASHONLY|Rotation=315.000|XOffset=0mil|YOffset=0mil|HoleType=Round|Shape=Round|*
%AMOVALD46*
21,1,0.0256,0.0159,0.0000,0.0000,45.0*
1,1,0.0159,-0.0090,-0.0090*
1,1,0.0159,0.0090,0.0090*
%
%ADD46OVALD46*%

%ADD47R,0.0671X0.0671*%
%ADD48C,0.0671*%
%ADD49C,0.0650*%
%ADD50R,0.0671X0.0671*%
%ADD51C,0.0480*%
%ADD52C,0.0780*%
%ADD53R,0.0780X0.0780*%
%ADD54C,0.0710*%
%ADD55R,0.0710X0.0710*%
%ADD56C,0.1280*%
%ADD57C,0.0980*%
%ADD58C,0.0552*%
%ADD59R,0.0513X0.0631*%
%ADD60P,0.1583X4X180.0*%
D41*
X063900Y045446D02*
D03*
Y046154D02*
D03*
X064900Y045446D02*
D03*
Y046154D02*
D03*
D43*
X073304Y034050D02*
D03*
X072596D02*
D03*
X049796Y034500D02*
D03*
X050504D02*
D03*
D45*
X052598Y047070D02*
D03*
X052487Y046959D02*
D03*
X052375Y046847D02*
D03*
X052264Y046736D02*
D03*
X052153Y046625D02*
D03*
X052041Y046513D02*
D03*
X051930Y046402D02*
D03*
X053002Y045330D02*
D03*
X053113Y045441D02*
D03*
X053225Y045553D02*
D03*
X053336Y045664D02*
D03*
X053447Y045775D02*
D03*
X053559Y045887D02*
D03*
X053670Y045998D02*
D03*
D46*
Y046402D02*
D03*
X053559Y046513D02*
D03*
X053447Y046625D02*
D03*
X053336Y046736D02*
D03*
X053225Y046847D02*
D03*
X053113Y046959D02*
D03*
X053002Y047070D02*
D03*
X051930Y045998D02*
D03*
X052041Y045887D02*
D03*
X052153Y045775D02*
D03*
X052264Y045664D02*
D03*
X052375Y045553D02*
D03*
X052487Y045441D02*
D03*
X052598Y045330D02*
D03*
D47*
X063900Y051850D02*
D03*
X076300Y046300D02*
D03*
Y044000D02*
D03*
Y041700D02*
D03*
Y039400D02*
D03*
Y037100D02*
D03*
Y034800D02*
D03*
Y032500D02*
D03*
X057500Y030500D02*
D03*
X067400Y053850D02*
D03*
D48*
X063900Y052850D02*
D03*
Y053850D02*
D03*
X076300Y047300D02*
D03*
Y045000D02*
D03*
Y042700D02*
D03*
Y040400D02*
D03*
Y038100D02*
D03*
Y035800D02*
D03*
Y033500D02*
D03*
X057500Y031500D02*
D03*
X068400Y053850D02*
D03*
X067400Y052850D02*
D03*
X068400D02*
D03*
X067400Y051850D02*
D03*
X068400D02*
D03*
X067400Y050850D02*
D03*
X068400D02*
D03*
X075300Y030800D02*
D03*
X062900Y030500D02*
D03*
X060900D02*
D03*
X061900D02*
D03*
D49*
X056900Y041000D02*
D03*
X057900D02*
D03*
X058900D02*
D03*
X059900D02*
D03*
X060900D02*
D03*
X061900D02*
D03*
X062900D02*
D03*
X063900D02*
D03*
X064900D02*
D03*
X065900D02*
D03*
X066900D02*
D03*
X067900D02*
D03*
X068900D02*
D03*
X069900D02*
D03*
Y042000D02*
D03*
Y043000D02*
D03*
Y044000D02*
D03*
Y045000D02*
D03*
Y046000D02*
D03*
Y047000D02*
D03*
X068900D02*
D03*
X067900D02*
D03*
X066900D02*
D03*
X065900D02*
D03*
X064900D02*
D03*
X063900D02*
D03*
X062900D02*
D03*
X061900D02*
D03*
X060900D02*
D03*
X059900D02*
D03*
X058900D02*
D03*
X057900D02*
D03*
X056900D02*
D03*
X057900Y046000D02*
D03*
X059900D02*
D03*
X060900D02*
D03*
X061900D02*
D03*
D50*
X054800Y038300D02*
D03*
X076300Y030800D02*
D03*
X059900Y030500D02*
D03*
D51*
X047600Y049550D02*
D03*
Y046850D02*
D03*
Y044150D02*
D03*
Y041450D02*
D03*
Y038750D02*
D03*
X047599Y036050D02*
D03*
X047600Y033350D02*
D03*
X052600Y035550D02*
D03*
D52*
X048600Y048700D02*
D03*
X047600D02*
D03*
X046600D02*
D03*
X048600Y046000D02*
D03*
X047600D02*
D03*
X046600D02*
D03*
X048600Y043300D02*
D03*
X047600D02*
D03*
X046600D02*
D03*
X048600Y040600D02*
D03*
X047600D02*
D03*
X046600D02*
D03*
X048600Y037900D02*
D03*
X047600D02*
D03*
X046600D02*
D03*
X048599Y035200D02*
D03*
X047599D02*
D03*
X046599D02*
D03*
X048600Y032500D02*
D03*
X047600D02*
D03*
X046600D02*
D03*
X051600Y036400D02*
D03*
X052600D02*
D03*
X053600D02*
D03*
D53*
X045600Y048700D02*
D03*
Y046000D02*
D03*
Y043300D02*
D03*
Y040600D02*
D03*
Y037900D02*
D03*
X045599Y035200D02*
D03*
X045600Y032500D02*
D03*
X054600Y036400D02*
D03*
D54*
X061700Y033800D02*
D03*
X060700D02*
D03*
X065000Y037500D02*
D03*
X064000D02*
D03*
X068100Y034400D02*
D03*
X067100D02*
D03*
X072600Y031900D02*
D03*
X071600D02*
D03*
D55*
X059700Y033800D02*
D03*
X063000Y037500D02*
D03*
X066100Y034400D02*
D03*
X070600Y031900D02*
D03*
D56*
X055365Y053146D02*
D03*
X046035D02*
D03*
D57*
X053700Y051000D02*
D03*
X051700D02*
D03*
X049700D02*
D03*
X047700D02*
D03*
D58*
X052800Y046200D02*
D03*
X053300Y033400D02*
D03*
D59*
X051705Y048200D02*
D03*
X052295D02*
D03*
D60*
X052800Y046200D02*
D03*
M02*
